<svg width="500" height="500" viewBox="0 0 500 500" fill="none" xmlns="http://www.w3.org/2000/svg">
<path d="M500 382.4H0V382.65H500V382.4Z" fill="#EBEBEB"/>
<path d="M68.52 391.92H52.46V392.17H68.52V391.92Z" fill="#EBEBEB"/>
<path d="M224.67 389.21H171.14V389.46H224.67V389.21Z" fill="#EBEBEB"/>
<path d="M105.77 401.21H69.52V401.46H105.77V401.21Z" fill="#EBEBEB"/>
<path d="M422.33 389.08H379.14V389.33H422.33V389.08Z" fill="#EBEBEB"/>
<path d="M437.57 389.08H431.24V389.33H437.57V389.08Z" fill="#EBEBEB"/>
<path d="M370.89 395.31H317V395.56H370.89V395.31Z" fill="#EBEBEB"/>
<path d="M237 337.8H43.91C42.3973 337.797 40.9475 337.195 39.8789 336.124C38.8102 335.053 38.21 333.603 38.21 332.09V60.66C38.2232 59.156 38.8292 57.718 39.8964 56.6582C40.9637 55.5985 42.406 55.0026 43.91 55H237C238.514 55 239.967 55.6016 241.038 56.6724C242.108 57.7433 242.71 59.1956 242.71 60.71V332.09C242.71 333.604 242.108 335.057 241.038 336.128C239.967 337.198 238.514 337.8 237 337.8ZM43.91 55.2C42.4636 55.2026 41.0774 55.7791 40.0557 56.8027C39.0339 57.8264 38.46 59.2136 38.46 60.66V332.09C38.46 333.536 39.0339 334.924 40.0557 335.947C41.0774 336.971 42.4636 337.547 43.91 337.55H237C238.447 337.547 239.835 336.971 240.858 335.948C241.881 334.924 242.457 333.537 242.46 332.09V60.66C242.457 59.2127 241.881 57.8255 240.858 56.8021C239.835 55.7787 238.447 55.2026 237 55.2H43.91Z" fill="#EBEBEB"/>
<path d="M453.31 337.8H260.21C258.696 337.797 257.246 337.195 256.175 336.125C255.105 335.054 254.503 333.604 254.5 332.09V60.66C254.516 59.1551 255.124 57.7171 256.193 56.6576C257.262 55.5981 258.705 55.0025 260.21 55H453.31C454.812 55.0052 456.252 55.6022 457.317 56.6617C458.382 57.7212 458.987 59.1578 459 60.66V332.09C459 333.601 458.401 335.05 457.335 336.121C456.268 337.191 454.821 337.795 453.31 337.8ZM260.21 55.2C258.763 55.2026 257.375 55.7787 256.352 56.8021C255.329 57.8255 254.753 59.2127 254.75 60.66V332.09C254.753 333.537 255.329 334.924 256.352 335.948C257.375 336.971 258.763 337.547 260.21 337.55H453.31C454.757 337.547 456.145 336.971 457.168 335.948C458.191 334.924 458.767 333.537 458.77 332.09V60.66C458.767 59.2127 458.191 57.8255 457.168 56.8021C456.145 55.7787 454.757 55.2026 453.31 55.2H260.21Z" fill="#EBEBEB"/>
<path d="M396.35 298.81H389.71V382.4H396.35V298.81Z" fill="#F5F5F5"/>
<path d="M399.24 298.81H393.46V382.4H399.24V298.81Z" fill="#F0F0F0"/>
<path d="M241.47 298.81H234.83V382.4H241.47V298.81Z" fill="#F5F5F5"/>
<path d="M244.36 298.81H238.58V382.4H244.36V298.81Z" fill="#F0F0F0"/>
<path d="M421.52 298.81H414.88V382.4H421.52V298.81Z" fill="#F5F5F5"/>
<path d="M424.41 298.81H418.63V382.4H424.41V298.81Z" fill="#F0F0F0"/>
<path d="M266.64 298.81H260V382.4H266.64V298.81Z" fill="#F5F5F5"/>
<path d="M234.84 300.39H424.41V297.22H234.84V300.39Z" fill="#F0F0F0"/>
<path d="M234.83 300.39H263.75V297.22H234.83V300.39Z" fill="#E6E6E6"/>
<path d="M269.53 298.81H263.75V382.4H269.53V298.81Z" fill="#F0F0F0"/>
<path d="M329.64 236.34H311.71V297.22H329.64V236.34Z" fill="#EBEBEB"/>
<path d="M378.26 297.22H318.74L309.75 225.97H369.27L378.26 297.22Z" fill="#E0E0E0"/>
<path d="M381.76 297.22H320.28L311.29 225.97H372.77L381.76 297.22Z" fill="#F0F0F0"/>
<path d="M347.27 297.22H335.34L338.7 225.97H350.63L347.27 297.22Z" fill="#FAFAFA"/>
<path d="M360.94 297.22H349.2L352.56 225.97H364.3L360.94 297.22Z" fill="#FAFAFA"/>
<path d="M430.95 72.5098H276.32V193.5H430.95V72.5098Z" fill="#E6E6E6"/>
<path d="M435.59 72.5098H278.49V193.5H435.59V72.5098Z" fill="#F0F0F0"/>
<path d="M430.95 193.5H276.32V197.55H430.95V193.5Z" fill="#E6E6E6"/>
<path d="M438.06 193.5H280.96V197.55H438.06V193.5Z" fill="#F0F0F0"/>
<path d="M429.1 187V79L284.99 79V187H429.1Z" fill="#FAFAFA"/>
<path d="M363.85 187L374.25 79.0098H392.25L381.85 187H363.85Z" fill="white"/>
<path d="M318.43 187L328.83 79.0098H346.83L336.43 187H318.43Z" fill="white"/>
<path d="M288 150.4C287.869 150.398 287.745 150.344 287.653 150.251C287.561 150.157 287.51 150.031 287.51 149.9V83.2305C287.51 83.0979 287.563 82.9707 287.656 82.8769C287.75 82.7831 287.877 82.7305 288.01 82.7305C288.143 82.7305 288.27 82.7831 288.364 82.8769C288.457 82.9707 288.51 83.0979 288.51 83.2305V149.9C288.51 149.967 288.497 150.033 288.471 150.094C288.445 150.155 288.408 150.211 288.36 150.258C288.313 150.304 288.256 150.341 288.194 150.365C288.133 150.39 288.066 150.402 288 150.4Z" fill="#F0F0F0"/>
<path d="M385.71 187L396.11 79.0098H403.13L392.73 187H385.71Z" fill="white"/>
<path d="M429.1 187.01V79.0098H428.28V187.01H429.1Z" fill="#E6E6E6"/>
<path opacity="0.5" d="M437.13 90.7803H282.5L281.9 81.5303H436.53L437.13 90.7803Z" fill="#E0E0E0"/>
<path opacity="0.5" d="M437.13 105.99H282.5L281.9 96.7402H436.53L437.13 105.99Z" fill="#E0E0E0"/>
<path opacity="0.5" d="M437.13 121.2H282.5L281.9 111.95H436.53L437.13 121.2Z" fill="#E0E0E0"/>
<path opacity="0.5" d="M437.13 136.41H282.5L281.9 127.16H436.53L437.13 136.41Z" fill="#E0E0E0"/>
<path opacity="0.5" d="M437.13 151.61H282.5L281.9 142.36H436.53L437.13 151.61Z" fill="#E0E0E0"/>
<path opacity="0.5" d="M437.13 166.82H282.5L281.9 157.57H436.53L437.13 166.82Z" fill="#E0E0E0"/>
<path opacity="0.5" d="M437.13 98.3896H282.5L281.9 89.1396H436.53L437.13 98.3896Z" fill="#E0E0E0"/>
<path opacity="0.5" d="M437.13 113.59H282.5L281.9 104.34H436.53L437.13 113.59Z" fill="#E0E0E0"/>
<path opacity="0.5" d="M437.13 128.8H282.5L281.9 119.55H436.53L437.13 128.8Z" fill="#E0E0E0"/>
<path opacity="0.5" d="M437.13 144.01H282.5L281.9 134.76H436.53L437.13 144.01Z" fill="#E0E0E0"/>
<path opacity="0.5" d="M437.13 159.22H282.5L281.9 149.97H436.53L437.13 159.22Z" fill="#E0E0E0"/>
<path opacity="0.5" d="M437.13 174.43H282.5L281.9 165.17H436.53L437.13 174.43Z" fill="#E0E0E0"/>
<path d="M99.2 132.56H120.19C122.852 132.56 125.01 130.402 125.01 127.74V119.68C125.01 117.018 122.852 114.86 120.19 114.86H99.2C96.538 114.86 94.38 117.018 94.38 119.68V127.74C94.38 130.402 96.538 132.56 99.2 132.56Z" fill="#F5F5F5"/>
<path d="M99.2 114.85H120.19C122.852 114.85 125.01 112.692 125.01 110.03V101.97C125.01 99.3076 122.852 97.1496 120.19 97.1496H99.2C96.538 97.1496 94.38 99.3076 94.38 101.97V110.03C94.38 112.692 96.538 114.85 99.2 114.85Z" fill="#F5F5F5"/>
<path d="M106.06 97.1504H113.33C114.252 97.1504 115 96.4027 115 95.4804V92.6904C115 91.7681 114.252 91.0204 113.33 91.0204H106.06C105.138 91.0204 104.39 91.7681 104.39 92.6904V95.4804C104.39 96.4027 105.138 97.1504 106.06 97.1504Z" fill="#E0E0E0"/>
<path d="M99.2 150.25H120.19C122.852 150.25 125.01 148.092 125.01 145.43V137.37C125.01 134.708 122.852 132.55 120.19 132.55H99.2C96.538 132.55 94.38 134.708 94.38 137.37V145.43C94.38 148.092 96.538 150.25 99.2 150.25Z" fill="#F5F5F5"/>
<path d="M210.52 138C210.52 138 209.52 150.3 170.63 150.3C131.74 150.3 130.73 138 130.73 138H210.52Z" fill="#F0F0F0"/>
<path d="M91.24 152.75H60.42V370.98H91.24V152.75Z" fill="#F0F0F0"/>
<path d="M218.31 370.98H66.33V382.4H218.31V370.98Z" fill="#F0F0F0"/>
<path d="M91.24 370.97H224.23L224.23 152.74L91.24 152.74L91.24 370.97Z" fill="#F5F5F5"/>
<path d="M103.35 281.79H212.11V230.29H103.35V281.79Z" fill="#F0F0F0"/>
<path d="M103.35 344.78H212.11V293.28H103.35V344.78Z" fill="#F0F0F0"/>
<path d="M103.35 363.35H212.11V355.5H103.35V363.35Z" fill="#F0F0F0"/>
<path d="M185.37 234.37H130.09C128.945 234.368 127.848 233.912 127.038 233.102C126.229 232.292 125.773 231.195 125.77 230.05C125.775 228.907 126.232 227.812 127.042 227.005C127.851 226.197 128.947 225.743 130.09 225.74H185.37C186.513 225.743 187.609 226.197 188.418 227.005C189.228 227.812 189.685 228.907 189.69 230.05C189.687 231.195 189.231 232.292 188.422 233.102C187.612 233.912 186.515 234.368 185.37 234.37Z" fill="#F5F5F5"/>
<path d="M103.35 218.81H212.11V167.31H103.35V218.81Z" fill="#F0F0F0"/>
<path d="M185.37 171.39H130.09C128.945 171.387 127.848 170.931 127.038 170.122C126.229 169.312 125.773 168.215 125.77 167.07C125.773 165.925 126.229 164.828 127.038 164.018C127.848 163.209 128.945 162.753 130.09 162.75H185.37C186.515 162.753 187.612 163.209 188.422 164.018C189.231 164.828 189.687 165.925 189.69 167.07C189.687 168.215 189.231 169.312 188.422 170.122C187.612 170.931 186.515 171.387 185.37 171.39Z" fill="#F5F5F5"/>
<path d="M185.37 297.36H130.09C128.945 297.357 127.848 296.901 127.038 296.092C126.229 295.282 125.773 294.185 125.77 293.04C125.773 291.895 126.229 290.798 127.038 289.988C127.848 289.178 128.945 288.722 130.09 288.72H185.37C186.515 288.722 187.612 289.178 188.422 289.988C189.231 290.798 189.687 291.895 189.69 293.04C189.687 294.185 189.231 295.282 188.422 296.092C187.612 296.901 186.515 297.357 185.37 297.36Z" fill="#F5F5F5"/>
<path d="M228.33 150.26H91.23V152.75H228.33V150.26Z" fill="#F0F0F0"/>
<path d="M56.12 152.75H91.24V150.26H56.12V152.75Z" fill="#E6E6E6"/>
<path d="M250 427.56C357.082 427.56 443.89 422.492 443.89 416.24C443.89 409.988 357.082 404.92 250 404.92C142.918 404.92 56.11 409.988 56.11 416.24C56.11 422.492 142.918 427.56 250 427.56Z" fill="#F5F5F5"/>
<path d="M442.06 317.11H57.94L50.86 310.41H449.14L442.06 317.11Z" fill="#23AFFF"/>
<path opacity="0.5" d="M442.06 317.11H57.94L50.86 310.41H449.14L442.06 317.11Z" fill="white"/>
<path d="M409.12 320.72H90.88L85.01 317.11H414.99L409.12 320.72Z" fill="#23AFFF"/>
<path opacity="0.5" d="M409.12 320.72H90.88L85.01 317.11H414.99L409.12 320.72Z" fill="black"/>
<path d="M88.36 416.24H83.79L97.96 320.72H108.15L88.36 416.24Z" fill="#23AFFF"/>
<path opacity="0.5" d="M88.36 416.24H83.79L97.96 320.72H108.15L88.36 416.24Z" fill="black"/>
<path d="M113.1 416.24H108.54L122.71 320.72H132.9L113.1 416.24Z" fill="#23AFFF"/>
<path opacity="0.5" d="M113.1 416.24H108.54L122.71 320.72H132.9L113.1 416.24Z" fill="black"/>
<path d="M411.64 416.24H416.21L402.04 320.72H391.85L411.64 416.24Z" fill="#23AFFF"/>
<path opacity="0.5" d="M411.64 416.24H416.21L402.04 320.72H391.85L411.64 416.24Z" fill="black"/>
<path d="M386.9 416.24H391.46L377.29 320.72H367.1L386.9 416.24Z" fill="#23AFFF"/>
<path opacity="0.5" d="M386.9 416.24H391.46L377.29 320.72H367.1L386.9 416.24Z" fill="black"/>
<path d="M224.28 95.1398L237.19 96.0098C237.691 96.0407 238.173 96.208 238.586 96.4936C238.998 96.7791 239.325 97.172 239.53 97.6298L240.89 100.63C241.185 101.278 241.719 101.786 242.38 102.05C243.999 102.715 245.57 103.494 247.08 104.38C247.683 104.734 248.397 104.848 249.08 104.7L252.32 103.94C252.808 103.827 253.318 103.849 253.795 104.002C254.272 104.155 254.699 104.434 255.03 104.81L263.55 114.55C263.881 114.929 264.102 115.39 264.19 115.885C264.278 116.38 264.23 116.89 264.05 117.36L262.87 120.46C262.621 121.127 262.639 121.865 262.92 122.52C263.596 124.145 264.157 125.816 264.6 127.52C264.771 128.21 265.205 128.806 265.81 129.18L268.63 130.93C269.057 131.193 269.403 131.568 269.633 132.014C269.862 132.46 269.965 132.96 269.93 133.46L269.07 146.38C269.038 146.88 268.868 147.362 268.581 147.773C268.294 148.184 267.899 148.508 267.44 148.71L264.44 150.07C263.796 150.371 263.29 150.903 263.02 151.56C262.362 153.181 261.587 154.752 260.7 156.26C260.343 156.861 260.228 157.577 260.38 158.26L261.13 161.49C261.246 161.978 261.226 162.488 261.073 162.966C260.92 163.444 260.638 163.87 260.26 164.2L250.52 172.72C250.143 173.05 249.683 173.272 249.19 173.36C248.696 173.448 248.188 173.4 247.72 173.22L244.61 172.04C243.951 171.78 243.219 171.78 242.56 172.04C240.933 172.713 239.263 173.274 237.56 173.72C236.872 173.895 236.277 174.328 235.9 174.93L234.15 177.75C233.884 178.177 233.508 178.523 233.06 178.752C232.613 178.981 232.111 179.084 231.61 179.05L218.7 178.19C218.2 178.157 217.718 177.989 217.306 177.703C216.894 177.418 216.567 177.026 216.36 176.57L215 173.57C214.705 172.922 214.171 172.413 213.51 172.15C211.891 171.484 210.32 170.706 208.81 169.82C208.208 169.465 207.493 169.35 206.81 169.5L203.58 170.26C203.092 170.375 202.582 170.354 202.104 170.201C201.627 170.048 201.2 169.767 200.87 169.39L192.34 159.65C192.011 159.27 191.791 158.808 191.703 158.314C191.615 157.819 191.663 157.31 191.84 156.84L193.02 153.74C193.269 153.076 193.251 152.341 192.97 151.69C192.296 150.064 191.735 148.393 191.29 146.69C191.119 146 190.685 145.404 190.08 145.03L187.26 143.28C186.833 143.017 186.487 142.642 186.258 142.196C186.028 141.75 185.926 141.25 185.96 140.75L186.82 127.83C186.855 127.329 187.025 126.847 187.312 126.435C187.599 126.023 187.992 125.696 188.45 125.49L191.45 124.14C192.098 123.845 192.607 123.311 192.87 122.65C193.536 121.027 194.314 119.453 195.2 117.94C195.557 117.338 195.675 116.624 195.53 115.94L194.77 112.71C194.655 112.222 194.675 111.711 194.829 111.234C194.982 110.757 195.262 110.33 195.64 110L205.38 101.48C205.756 101.148 206.216 100.926 206.709 100.836C207.203 100.746 207.711 100.792 208.18 100.97L211.29 102.15C211.948 102.415 212.682 102.415 213.34 102.15C214.965 101.472 216.636 100.911 218.34 100.47C219.025 100.293 219.617 99.8644 220 99.2698L221.75 96.4498C222.014 96.0235 222.389 95.6767 222.834 95.4461C223.28 95.2154 223.779 95.1096 224.28 95.1398ZM203.53 135.51C203.206 140.343 204.323 145.164 206.74 149.362C209.156 153.561 212.764 156.948 217.105 159.096C221.447 161.244 226.329 162.057 231.132 161.43C235.935 160.804 240.445 158.767 244.091 155.577C247.737 152.388 250.355 148.188 251.614 143.511C252.873 138.833 252.716 133.887 251.164 129.298C249.612 124.71 246.733 120.684 242.893 117.732C239.053 114.779 234.423 113.031 229.59 112.71C223.112 112.282 216.728 114.442 211.842 118.717C206.956 122.992 203.966 129.032 203.53 135.51Z" fill="#23AFFF"/>
<path d="M275.45 149.719L279.88 148.219C280.114 148.142 280.365 148.13 280.606 148.182C280.847 148.235 281.069 148.351 281.25 148.519L281.98 149.219C282.236 149.449 282.567 149.577 282.91 149.579C283.519 149.579 284.127 149.619 284.73 149.699C284.904 149.728 285.082 149.721 285.254 149.68C285.426 149.639 285.588 149.564 285.73 149.459L286.55 148.869C286.752 148.727 286.989 148.642 287.235 148.623C287.481 148.604 287.728 148.651 287.95 148.759L292.14 150.839C292.361 150.948 292.548 151.113 292.681 151.319C292.815 151.525 292.891 151.764 292.9 152.009V153.009C292.913 153.355 293.056 153.684 293.3 153.929C293.731 154.358 294.132 154.815 294.5 155.299C294.709 155.572 295.012 155.757 295.35 155.819L296.35 155.979C296.593 156.02 296.82 156.126 297.007 156.287C297.194 156.447 297.333 156.655 297.41 156.889L298.91 161.319C298.992 161.552 299.008 161.803 298.957 162.045C298.905 162.286 298.789 162.509 298.62 162.689L297.92 163.419C297.689 163.674 297.561 164.005 297.56 164.349C297.56 164.958 297.52 165.566 297.44 166.169C297.411 166.343 297.416 166.521 297.456 166.692C297.495 166.864 297.568 167.026 297.67 167.169L298.26 167.989C298.406 168.188 298.494 168.422 298.515 168.667C298.536 168.913 298.49 169.159 298.38 169.379L296.3 173.579C296.192 173.8 296.026 173.987 295.82 174.121C295.614 174.255 295.376 174.33 295.13 174.339H294.13C293.786 174.35 293.46 174.493 293.22 174.739C292.784 175.163 292.327 175.563 291.85 175.939C291.578 176.149 291.392 176.451 291.33 176.789L291.17 177.789C291.129 178.032 291.023 178.259 290.863 178.446C290.702 178.633 290.494 178.772 290.26 178.849L285.83 180.349C285.596 180.43 285.345 180.444 285.103 180.391C284.861 180.338 284.639 180.22 284.46 180.049L283.72 179.359C283.469 179.122 283.135 178.993 282.79 178.999C282.185 179 281.58 178.959 280.98 178.879C280.806 178.85 280.629 178.855 280.457 178.894C280.285 178.934 280.123 179.007 279.98 179.109L279.16 179.699C278.96 179.845 278.723 179.933 278.477 179.954C278.23 179.975 277.982 179.929 277.76 179.819L273.57 177.739C273.348 177.63 273.16 177.463 273.026 177.255C272.892 177.047 272.817 176.807 272.81 176.559V175.559C272.794 175.217 272.652 174.892 272.41 174.649C271.981 174.219 271.58 173.761 271.21 173.279C271.11 173.141 270.983 173.024 270.837 172.935C270.691 172.845 270.529 172.786 270.36 172.759L269.36 172.599C269.117 172.555 268.891 172.448 268.703 172.288C268.515 172.128 268.372 171.922 268.29 171.689L266.79 167.249C266.713 167.017 266.7 166.767 266.753 166.528C266.806 166.289 266.922 166.068 267.09 165.889L267.79 165.159C268.022 164.901 268.15 164.566 268.15 164.219C268.15 163.611 268.19 163.003 268.27 162.399C268.325 162.047 268.239 161.688 268.03 161.399L267.45 160.579C267.304 160.381 267.216 160.146 267.195 159.901C267.174 159.656 267.22 159.41 267.33 159.189L269.41 154.989C269.517 154.769 269.683 154.582 269.889 154.449C270.096 154.317 270.335 154.244 270.58 154.239H271.58C271.926 154.226 272.254 154.083 272.5 153.839C272.931 153.41 273.388 153.01 273.87 152.639C274.142 152.43 274.328 152.127 274.39 151.789L274.55 150.789C274.588 150.546 274.692 150.317 274.851 150.129C275.009 149.94 275.217 149.799 275.45 149.719ZM278.1 165.899C278.418 166.835 279.007 167.655 279.791 168.256C280.575 168.858 281.52 169.213 282.506 169.278C283.492 169.343 284.475 169.114 285.331 168.62C286.187 168.127 286.877 167.391 287.315 166.505C287.753 165.619 287.919 164.623 287.792 163.644C287.664 162.664 287.249 161.744 286.599 160.999C285.949 160.255 285.093 159.72 284.139 159.462C283.186 159.204 282.177 159.234 281.24 159.549C280.616 159.759 280.04 160.09 279.544 160.523C279.049 160.956 278.643 161.482 278.352 162.072C278.06 162.662 277.887 163.304 277.844 163.961C277.801 164.618 277.888 165.276 278.1 165.899Z" fill="#23AFFF"/>
<path opacity="0.5" d="M275.45 149.719L279.88 148.219C280.114 148.142 280.365 148.13 280.606 148.182C280.847 148.235 281.069 148.351 281.25 148.519L281.98 149.219C282.236 149.449 282.567 149.577 282.91 149.579C283.519 149.579 284.127 149.619 284.73 149.699C284.904 149.728 285.082 149.721 285.254 149.68C285.426 149.639 285.588 149.564 285.73 149.459L286.55 148.869C286.752 148.727 286.989 148.642 287.235 148.623C287.481 148.604 287.728 148.651 287.95 148.759L292.14 150.839C292.361 150.948 292.548 151.113 292.681 151.319C292.815 151.525 292.891 151.764 292.9 152.009V153.009C292.913 153.355 293.056 153.684 293.3 153.929C293.731 154.358 294.132 154.815 294.5 155.299C294.709 155.572 295.012 155.757 295.35 155.819L296.35 155.979C296.593 156.02 296.82 156.126 297.007 156.287C297.194 156.447 297.333 156.655 297.41 156.889L298.91 161.319C298.992 161.552 299.008 161.803 298.957 162.045C298.905 162.286 298.789 162.509 298.62 162.689L297.92 163.419C297.689 163.674 297.561 164.005 297.56 164.349C297.56 164.958 297.52 165.566 297.44 166.169C297.411 166.343 297.416 166.521 297.456 166.692C297.495 166.864 297.568 167.026 297.67 167.169L298.26 167.989C298.406 168.188 298.494 168.422 298.515 168.667C298.536 168.913 298.49 169.159 298.38 169.379L296.3 173.579C296.192 173.8 296.026 173.987 295.82 174.121C295.614 174.255 295.376 174.33 295.13 174.339H294.13C293.786 174.35 293.46 174.493 293.22 174.739C292.784 175.163 292.327 175.563 291.85 175.939C291.578 176.149 291.392 176.451 291.33 176.789L291.17 177.789C291.129 178.032 291.023 178.259 290.863 178.446C290.702 178.633 290.494 178.772 290.26 178.849L285.83 180.349C285.596 180.43 285.345 180.444 285.103 180.391C284.861 180.338 284.639 180.22 284.46 180.049L283.72 179.359C283.469 179.122 283.135 178.993 282.79 178.999C282.185 179 281.58 178.959 280.98 178.879C280.806 178.85 280.629 178.855 280.457 178.894C280.285 178.934 280.123 179.007 279.98 179.109L279.16 179.699C278.96 179.845 278.723 179.933 278.477 179.954C278.23 179.975 277.982 179.929 277.76 179.819L273.57 177.739C273.348 177.63 273.16 177.463 273.026 177.255C272.892 177.047 272.817 176.807 272.81 176.559V175.559C272.794 175.217 272.652 174.892 272.41 174.649C271.981 174.219 271.58 173.761 271.21 173.279C271.11 173.141 270.983 173.024 270.837 172.935C270.691 172.845 270.529 172.786 270.36 172.759L269.36 172.599C269.117 172.555 268.891 172.448 268.703 172.288C268.515 172.128 268.372 171.922 268.29 171.689L266.79 167.249C266.713 167.017 266.7 166.767 266.753 166.528C266.806 166.289 266.922 166.068 267.09 165.889L267.79 165.159C268.022 164.901 268.15 164.566 268.15 164.219C268.15 163.611 268.19 163.003 268.27 162.399C268.325 162.047 268.239 161.688 268.03 161.399L267.45 160.579C267.304 160.381 267.216 160.146 267.195 159.901C267.174 159.656 267.22 159.41 267.33 159.189L269.41 154.989C269.517 154.769 269.683 154.582 269.889 154.449C270.096 154.317 270.335 154.244 270.58 154.239H271.58C271.926 154.226 272.254 154.083 272.5 153.839C272.931 153.41 273.388 153.01 273.87 152.639C274.142 152.43 274.328 152.127 274.39 151.789L274.55 150.789C274.588 150.546 274.692 150.317 274.851 150.129C275.009 149.94 275.217 149.799 275.45 149.719ZM278.1 165.899C278.418 166.835 279.007 167.655 279.791 168.256C280.575 168.858 281.52 169.213 282.506 169.278C283.492 169.343 284.475 169.114 285.331 168.62C286.187 168.127 286.877 167.391 287.315 166.505C287.753 165.619 287.919 164.623 287.792 163.644C287.664 162.664 287.249 161.744 286.599 160.999C285.949 160.255 285.093 159.72 284.139 159.462C283.186 159.204 282.177 159.234 281.24 159.549C280.616 159.759 280.04 160.09 279.544 160.523C279.049 160.956 278.643 161.482 278.352 162.072C278.06 162.662 277.887 163.304 277.844 163.961C277.801 164.618 277.888 165.276 278.1 165.899Z" fill="white"/>
<path d="M249.9 197.739L255.4 188.209C255.604 187.855 255.711 187.453 255.712 187.045C255.713 186.636 255.607 186.234 255.405 185.878C255.203 185.523 254.912 185.226 254.56 185.018C254.209 184.809 253.809 184.696 253.4 184.689H242.4C241.99 184.693 241.588 184.804 241.235 185.012C240.881 185.22 240.589 185.517 240.386 185.873C240.184 186.23 240.078 186.633 240.081 187.043C240.083 187.453 240.193 187.855 240.4 188.209L245.9 197.739C246.11 198.081 246.405 198.362 246.755 198.558C247.105 198.753 247.499 198.856 247.9 198.856C248.301 198.856 248.695 198.753 249.045 198.558C249.395 198.362 249.69 198.081 249.9 197.739Z" fill="#23AFFF"/>
<path d="M69.69 306.419H204.5C204.963 306.421 205.421 306.329 205.848 306.149C206.274 305.97 206.66 305.706 206.982 305.373C207.305 305.041 207.556 304.647 207.723 304.215C207.889 303.783 207.966 303.322 207.95 302.859L204.76 206.479C204.717 205.526 204.31 204.625 203.624 203.961C202.938 203.297 202.024 202.921 201.07 202.909H66.27C65.8059 202.906 65.3459 202.997 64.918 203.177C64.4901 203.357 64.1032 203.622 63.7807 203.956C63.4581 204.289 63.2067 204.685 63.0415 205.119C62.8764 205.553 62.801 206.015 62.82 206.479L66 302.859C66.0386 303.814 66.4437 304.716 67.1311 305.379C67.8184 306.042 68.735 306.415 69.69 306.419Z" fill="#23AFFF"/>
<path d="M70.79 306.419H205.6C206.063 306.421 206.521 306.329 206.948 306.149C207.374 305.97 207.76 305.706 208.082 305.373C208.405 305.041 208.656 304.647 208.823 304.215C208.989 303.783 209.066 303.322 209.05 302.859L205.86 206.479C205.817 205.526 205.41 204.625 204.724 203.961C204.038 203.297 203.124 202.921 202.17 202.909H67.37C66.9063 202.908 66.447 203 66.0197 203.18C65.5925 203.36 65.2061 203.625 64.8839 203.959C64.5616 204.292 64.3101 204.687 64.1445 205.12C63.9788 205.554 63.9025 206.016 63.92 206.479L67.11 302.859C67.1485 303.812 67.5523 304.713 68.2374 305.376C68.9226 306.039 69.8367 306.412 70.79 306.419Z" fill="#23AFFF"/>
<g opacity="0.6">
<path d="M70.79 306.419H205.6C206.063 306.421 206.521 306.329 206.948 306.149C207.374 305.97 207.76 305.706 208.082 305.373C208.405 305.041 208.656 304.647 208.823 304.215C208.989 303.783 209.066 303.322 209.05 302.859L205.86 206.479C205.817 205.526 205.41 204.625 204.724 203.961C204.038 203.297 203.124 202.921 202.17 202.909H67.37C66.9063 202.908 66.447 203 66.0197 203.18C65.5925 203.36 65.2061 203.625 64.8839 203.959C64.5616 204.292 64.3101 204.687 64.1445 205.12C63.9788 205.554 63.9025 206.016 63.92 206.479L67.11 302.859C67.1485 303.812 67.5523 304.713 68.2374 305.376C68.9226 306.039 69.8367 306.412 70.79 306.419Z" fill="#263238"/>
</g>
<path d="M72.53 306.25H235.34C236.141 306.25 236.925 306.475 237.604 306.899C238.283 307.323 238.829 307.93 239.18 308.65C239.27 308.838 239.31 309.046 239.298 309.255C239.285 309.463 239.22 309.664 239.108 309.84C238.996 310.016 238.841 310.161 238.658 310.261C238.474 310.36 238.269 310.412 238.06 310.41H69.81C69.6005 310.413 69.3937 310.363 69.209 310.264C69.0244 310.165 68.868 310.021 68.7548 309.845C68.6417 309.668 68.5754 309.466 68.5623 309.257C68.5492 309.048 68.5897 308.839 68.68 308.65C69.0323 307.929 69.5801 307.322 70.2608 306.898C70.9416 306.474 71.7278 306.249 72.53 306.25Z" fill="#23AFFF"/>
<path opacity="0.6" d="M235.34 306.25H105.42C104.618 306.249 103.832 306.474 103.151 306.898C102.47 307.322 101.922 307.929 101.57 308.65C101.48 308.839 101.439 309.048 101.452 309.257C101.465 309.466 101.532 309.668 101.645 309.845C101.758 310.021 101.914 310.165 102.099 310.264C102.284 310.363 102.491 310.413 102.7 310.41H238.06C238.269 310.412 238.474 310.36 238.658 310.261C238.841 310.161 238.996 310.016 239.108 309.84C239.22 309.664 239.285 309.463 239.298 309.255C239.31 309.046 239.27 308.838 239.18 308.65C238.829 307.93 238.283 307.323 237.604 306.899C236.925 306.475 236.141 306.25 235.34 306.25Z" fill="#263238"/>
<path opacity="0.3" d="M157.68 308.89H191.48C191.881 308.892 192.265 309.054 192.548 309.338C192.831 309.623 192.99 310.008 192.99 310.41H156.16C156.16 310.007 156.32 309.62 156.605 309.335C156.89 309.05 157.277 308.89 157.68 308.89Z" fill="white"/>
<path opacity="0.9" d="M205.83 299.369L202.83 209.969C202.812 209.598 202.653 209.247 202.386 208.989C202.118 208.73 201.762 208.584 201.39 208.579H68.48C68.2967 208.577 68.1149 208.613 67.9462 208.685C67.7775 208.757 67.6255 208.863 67.4996 208.996C67.3738 209.13 67.2769 209.288 67.215 209.46C67.1531 209.633 67.1276 209.816 67.14 209.999L70.14 299.399C70.1529 299.771 70.3089 300.123 70.5754 300.382C70.842 300.641 71.1983 300.787 71.57 300.789H204.57C204.746 300.779 204.918 300.734 205.077 300.657C205.236 300.58 205.378 300.473 205.495 300.341C205.612 300.209 205.702 300.055 205.759 299.888C205.817 299.722 205.841 299.545 205.83 299.369Z" fill="white"/>
<path d="M96.26 300.759H77.93L99.06 208.579H117.39L96.26 300.759Z" fill="white"/>
<path d="M107.94 300.759H101.34L122.47 208.579H129.07L107.94 300.759Z" fill="white"/>
<path d="M175.37 300.759H168.77L189.9 208.579H196.49L175.37 300.759Z" fill="white"/>
<path opacity="0.4" d="M133.82 205.899C133.845 206.17 133.969 206.422 134.168 206.607C134.368 206.791 134.628 206.896 134.9 206.899C135.165 206.899 135.42 206.794 135.607 206.607C135.795 206.419 135.9 206.165 135.9 205.899C135.88 205.627 135.757 205.372 135.557 205.187C135.356 205.001 135.093 204.899 134.82 204.899C134.555 204.899 134.3 205.005 134.113 205.192C133.925 205.38 133.82 205.634 133.82 205.899Z" fill="white"/>
<path d="M176.74 196.06C178.51 198.9 180.42 201.91 182.33 204.81C184.24 207.71 186.2 210.61 188.2 213.45C192.081 219.092 196.277 224.511 200.77 229.68C202.881 232.092 205.17 234.342 207.62 236.41L208.48 237.09C208.668 237.251 208.865 237.401 209.07 237.54C209.588 237.88 210.126 238.191 210.68 238.47C212.03 239.126 213.427 239.681 214.86 240.13C216.37 240.64 217.96 241.13 219.58 241.5C221.2 241.87 222.87 242.3 224.58 242.65C227.93 243.36 231.43 244.01 234.8 244.59V251.59C232.88 251.87 231.08 252.01 229.21 252.14C227.34 252.27 225.49 252.32 223.61 252.33C219.771 252.343 215.938 252.038 212.15 251.42C210.099 251.063 208.076 250.555 206.1 249.9C204.994 249.52 203.918 249.059 202.88 248.52C202.33 248.26 201.75 247.89 201.19 247.52L199.9 246.62C196.717 244.281 193.74 241.675 191 238.83C185.84 233.445 181.065 227.704 176.71 221.65C174.543 218.683 172.457 215.683 170.45 212.65C168.45 209.57 166.45 206.55 164.59 203.27L176.74 196.06Z" fill="#FFC3BD"/>
<path d="M159.91 197.999C158.91 206.779 179.84 227.759 179.84 227.759L194 215.939C189.85 208.917 185.258 202.167 180.25 195.729C172.2 185.759 161 188.069 159.91 197.999Z" fill="#23AFFF"/>
<path opacity="0.3" d="M171.35 204.23C165.76 198.23 163.09 196.68 159.87 199.07C160.3 208.34 179.87 227.74 179.87 227.74C181.15 217.79 176.08 211.39 171.35 204.23Z" fill="black"/>
<path d="M192.85 211.89L194.34 216.21L178.5 229.21L175.37 225.96L192.85 211.89Z" fill="#23AFFF"/>
<path opacity="0.3" d="M192.85 211.89L194.34 216.21L178.5 229.21L175.37 225.96L192.85 211.89Z" fill="#263238"/>
<path d="M234.05 244.449L245.05 246.339L239 255.999C237.56 256.229 231.82 253.119 229.28 249.259L234.05 244.449Z" fill="#FFC3BD"/>
<path d="M251.8 252.86L247.41 257.84L238.99 255.95L245.03 246.34L251.8 252.86Z" fill="#FFC3BD"/>
<path d="M171.3 189.589C171.3 189.589 183.3 217.809 174.66 270.369H124.66C124.05 262.699 127.57 225.269 118.92 189.109C124.424 188.041 129.993 187.336 135.59 186.999C142.667 186.589 149.763 186.589 156.84 186.999C161.72 187.488 166.554 188.354 171.3 189.589Z" fill="#23AFFF"/>
<path opacity="0.3" d="M130.09 197.999C131.09 203.999 129.75 218.179 124.65 234.639C124.259 220.522 122.616 206.467 119.74 192.639V192.569C123 192.299 129.1 192.459 130.09 197.999Z" fill="black"/>
<path d="M136.86 163.069C138.44 169.909 140.21 182.439 135.59 186.999C135.59 186.999 137.59 192.659 150.29 192.659C164.29 192.659 156.84 186.999 156.84 186.999C149.15 185.179 149.15 179.519 150.29 174.209L136.86 163.069Z" fill="#FFC3BD"/>
<path d="M151.15 193.19L154.15 196.36C154.241 196.453 154.301 196.572 154.323 196.701C154.344 196.83 154.326 196.962 154.27 197.08L152.77 200.21C152.722 200.317 152.645 200.408 152.548 200.473C152.45 200.538 152.337 200.575 152.22 200.58L149.95 200.69C149.842 200.694 149.735 200.671 149.638 200.622C149.542 200.573 149.46 200.5 149.4 200.41L147.3 197.41C147.216 197.297 147.17 197.161 147.17 197.02C147.17 196.879 147.216 196.742 147.3 196.63L150.18 193.22C150.237 193.147 150.309 193.087 150.392 193.045C150.474 193.003 150.565 192.98 150.658 192.977C150.751 192.974 150.843 192.992 150.928 193.028C151.013 193.065 151.089 193.12 151.15 193.19Z" fill="white"/>
<path d="M150.66 192.659C149.217 194.981 148.381 197.629 148.23 200.359C148.23 200.359 132 194.809 132.74 186.689C134.181 185.99 135.569 185.185 136.89 184.279C136.89 184.279 137.42 189.409 150.66 192.659Z" fill="#263238"/>
<path d="M150.66 192.659C152.104 194.861 153.143 197.303 153.73 199.869C153.73 199.869 161.25 194.719 159.11 186.689L154.69 185.739C154.69 185.739 155.62 190.919 150.66 192.659Z" fill="#263238"/>
<path d="M152.5 200.239C153.5 203.559 161.04 228.179 161.23 234.069C161.235 234.119 161.235 234.169 161.23 234.219C160.53 237.389 157.39 242.949 156.11 245.129C156.061 245.215 155.988 245.286 155.901 245.333C155.814 245.38 155.715 245.402 155.616 245.395C155.517 245.389 155.422 245.355 155.341 245.298C155.261 245.24 155.198 245.161 155.16 245.069C154.28 242.919 152.16 237.769 150.76 234.759C150.734 234.702 150.717 234.641 150.71 234.579C150.05 223.829 149.87 207.109 149.54 200.429C149.536 200.357 149.547 200.285 149.571 200.217C149.596 200.149 149.635 200.087 149.684 200.035C149.734 199.982 149.794 199.941 149.86 199.912C149.926 199.884 149.998 199.869 150.07 199.869H152C152.112 199.87 152.22 199.907 152.31 199.973C152.4 200.04 152.466 200.133 152.5 200.239Z" fill="white"/>
<path opacity="0.2" d="M142.34 167.609L150.29 174.199C150.002 175.438 149.825 176.7 149.76 177.969C146.83 177.549 142.76 174.359 142.31 171.309C142.09 170.085 142.1 168.83 142.34 167.609Z" fill="black"/>
<path d="M156.44 142.739C158.33 144.149 161.56 150.109 157.44 151.669C153.32 153.229 151.81 139.279 156.44 142.739Z" fill="#263238"/>
<path d="M134.4 154.869C136.29 163.979 136.94 169.389 142.27 173.579C143.988 174.962 146.051 175.849 148.236 176.144C150.422 176.439 152.646 176.13 154.669 175.252C156.692 174.373 158.435 172.958 159.712 171.16C160.988 169.362 161.748 167.249 161.91 165.049C162.69 156.599 159.45 143.129 149.91 140.469C147.86 139.841 145.682 139.763 143.592 140.242C141.503 140.721 139.576 141.741 138.005 143.2C136.435 144.658 135.275 146.504 134.642 148.552C134.009 150.6 133.926 152.779 134.4 154.869Z" fill="#FFC3BD"/>
<path d="M135.59 161.73L139.41 159.18L139.66 156.96C140.011 153.741 139.409 150.49 137.93 147.61C137.93 147.61 156.5 148.3 158.8 142.49C161.1 136.68 154.56 132.31 154.56 132.31C154.56 132.31 147.99 136.08 143.56 136.38C139.13 136.68 125.56 131.14 125.56 142.61C119.56 144.46 119.76 154.33 135.56 161.73" fill="#263238"/>
<path d="M126.23 143.059C126.23 143.059 123.77 141.109 125.6 135.149C123.35 136.269 122.27 142.359 126.23 143.059Z" fill="#263238"/>
<path d="M131.71 165.439C133.223 167.248 135.369 168.41 137.71 168.689C140.81 169.019 141.71 166.159 140.37 163.529C139.13 161.169 136.03 158.149 133.17 159.039C130.31 159.929 129.86 163.189 131.71 165.439Z" fill="#FFC3BD"/>
<path d="M178.88 300.759H146.93C144.06 283.419 141.75 270.369 141.75 270.369H174.66C174.66 270.369 176.51 283.199 178.88 300.759Z" fill="#263238"/>
<path d="M125.88 300.759C125.16 283.419 124.62 270.369 124.62 270.369H156.88C156.88 270.369 157.04 283.579 157.11 300.759H125.88Z" fill="#263238"/>
<path d="M148.73 155.899C148.84 156.649 149.32 157.209 149.81 157.159C150.3 157.109 150.61 156.449 150.5 155.709C150.39 154.969 149.91 154.399 149.42 154.449C148.93 154.499 148.62 155.149 148.73 155.899Z" fill="#263238"/>
<path d="M157.2 155C157.31 155.75 157.79 156.31 158.28 156.25C158.77 156.19 159.08 155.55 158.97 154.81C158.86 154.07 158.38 153.5 157.89 153.55C157.4 153.6 157.09 154.22 157.2 155Z" fill="#263238"/>
<path d="M154.56 155.64C155.787 157.83 157.301 159.848 159.06 161.64C157.92 163.02 155.58 162.7 155.58 162.7L154.56 155.64Z" fill="#ED847E"/>
<path d="M152.14 165C152.655 165.054 153.175 165.054 153.69 165C153.719 164.997 153.747 164.989 153.773 164.975C153.799 164.962 153.821 164.944 153.84 164.921C153.859 164.899 153.873 164.873 153.881 164.845C153.89 164.818 153.893 164.789 153.89 164.76C153.882 164.7 153.852 164.646 153.806 164.609C153.759 164.572 153.699 164.554 153.64 164.56C152.698 164.679 151.741 164.581 150.843 164.273C149.945 163.964 149.129 163.453 148.46 162.78C148.441 162.757 148.418 162.739 148.392 162.726C148.365 162.712 148.337 162.704 148.308 162.702C148.278 162.7 148.249 162.703 148.221 162.712C148.193 162.721 148.167 162.736 148.145 162.755C148.123 162.774 148.104 162.797 148.091 162.823C148.078 162.849 148.07 162.878 148.067 162.907C148.065 162.936 148.068 162.966 148.077 162.994C148.087 163.021 148.101 163.047 148.12 163.07C149.187 164.171 150.613 164.856 152.14 165Z" fill="#263238"/>
<path d="M145.67 153.459C145.755 153.47 145.842 153.455 145.919 153.415C145.995 153.376 146.059 153.315 146.1 153.239C146.357 152.756 146.728 152.343 147.181 152.036C147.634 151.729 148.156 151.538 148.7 151.479C148.818 151.472 148.927 151.418 149.006 151.33C149.085 151.242 149.125 151.127 149.12 151.009C149.117 150.952 149.103 150.895 149.079 150.842C149.054 150.79 149.02 150.743 148.977 150.704C148.934 150.665 148.884 150.635 148.83 150.615C148.776 150.595 148.718 150.587 148.66 150.589C147.967 150.658 147.301 150.895 146.72 151.281C146.14 151.666 145.663 152.187 145.33 152.799C145.3 152.85 145.281 152.907 145.273 152.965C145.265 153.024 145.27 153.084 145.285 153.14C145.301 153.197 145.329 153.251 145.365 153.297C145.402 153.343 145.448 153.381 145.5 153.409C145.551 153.441 145.61 153.458 145.67 153.459Z" fill="#263238"/>
<path d="M160.37 151.669C160.476 151.677 160.582 151.649 160.67 151.589C160.765 151.522 160.83 151.422 160.852 151.308C160.875 151.195 160.852 151.077 160.79 150.979C160.41 150.378 159.895 149.874 159.285 149.508C158.676 149.142 157.989 148.923 157.28 148.869C157.164 148.869 157.053 148.914 156.969 148.994C156.885 149.074 156.835 149.183 156.83 149.299C156.83 149.417 156.876 149.53 156.958 149.614C157.041 149.698 157.152 149.747 157.27 149.749C157.835 149.802 158.379 149.985 158.861 150.284C159.344 150.582 159.75 150.988 160.05 151.469C160.087 151.523 160.134 151.568 160.189 151.603C160.244 151.637 160.306 151.66 160.37 151.669Z" fill="#263238"/>
<path d="M128.47 203.16L126.25 207C125.503 208.333 124.773 209.667 124.06 211C122.62 213.667 121.24 216.353 119.92 219.06C118.62 221.77 117.38 224.49 116.27 227.23C115.74 228.59 115.2 229.96 114.74 231.33L114.03 233.38L113.44 235.38L113.29 235.89L113.21 236.15C113.21 236.24 113.21 236.15 113.21 236.21C113.21 236.27 113.21 236.32 113.14 236.43C113.099 236.822 113.099 237.218 113.14 237.61C113.265 238.799 113.513 239.972 113.88 241.11C114.758 243.848 115.827 246.522 117.08 249.11C119.61 254.54 122.69 260.02 125.72 265.37L120.19 269.69C117.83 267.32 115.71 264.91 113.63 262.37C111.55 259.83 109.63 257.19 107.74 254.37C105.815 251.49 104.142 248.448 102.74 245.28C101.941 243.473 101.324 241.59 100.9 239.66C100.651 238.493 100.524 237.303 100.52 236.11C100.512 235.393 100.565 234.677 100.68 233.97L100.76 233.45L100.83 233.13L100.96 232.48C101.608 229.091 102.487 225.75 103.59 222.48C104.65 219.26 105.89 216.16 107.21 213.1C108.53 210.04 109.98 207.1 111.53 204.16C112.31 202.71 113.1 201.27 113.93 199.83C114.76 198.39 115.58 197.03 116.57 195.5L128.47 203.16Z" fill="#FFC3BD"/>
<path d="M118.93 189.11C110.13 190.4 101.06 221.04 101.06 221.04L120 231.53C120 231.53 127.67 216.95 131.33 206.13C135.16 194.79 128.36 187.73 118.93 189.11Z" fill="#23AFFF"/>
<path d="M101.45 216.72L100.65 221.22L120.11 231.93L122.7 228.22L101.45 216.72Z" fill="#23AFFF"/>
<path opacity="0.3" d="M101.45 216.72L100.65 221.22L120.11 231.93L122.7 228.22L101.45 216.72Z" fill="#263238"/>
<path d="M123.2 263.29L132.5 261.67L127.73 272.44C127.73 272.44 119.23 272.39 119.62 268.01L123.2 263.29Z" fill="#FFC3BD"/>
<path d="M139.45 267.08L135.07 275.78L127.73 272.44L132.5 261.67L139.45 267.08Z" fill="#FFC3BD"/>
<path d="M430.31 306.42H295.5C295.037 306.422 294.579 306.33 294.152 306.15C293.726 305.971 293.34 305.707 293.018 305.374C292.695 305.042 292.444 304.648 292.277 304.216C292.111 303.784 292.034 303.323 292.05 302.86L295.24 206.48C295.283 205.527 295.69 204.626 296.376 203.962C297.062 203.298 297.976 202.922 298.93 202.91H433.73C434.194 202.907 434.654 202.998 435.082 203.178C435.51 203.358 435.897 203.623 436.219 203.957C436.542 204.29 436.793 204.686 436.958 205.12C437.124 205.554 437.199 206.016 437.18 206.48L434 302.86C433.961 303.814 433.556 304.717 432.869 305.38C432.182 306.043 431.265 306.416 430.31 306.42Z" fill="#23AFFF"/>
<path opacity="0.6" d="M430.31 306.42H295.5C295.037 306.422 294.579 306.33 294.152 306.15C293.726 305.971 293.34 305.707 293.018 305.374C292.695 305.042 292.444 304.648 292.277 304.216C292.111 303.784 292.034 303.323 292.05 302.86L295.24 206.48C295.283 205.527 295.69 204.626 296.376 203.962C297.062 203.298 297.976 202.922 298.93 202.91H433.73C434.194 202.907 434.654 202.998 435.082 203.178C435.51 203.358 435.897 203.623 436.219 203.957C436.542 204.29 436.793 204.686 436.958 205.12C437.124 205.554 437.199 206.016 437.18 206.48L434 302.86C433.961 303.814 433.556 304.717 432.869 305.38C432.182 306.043 431.265 306.416 430.31 306.42Z" fill="#263238"/>
<path d="M429.21 306.42H294.4C293.937 306.422 293.479 306.33 293.052 306.15C292.626 305.971 292.24 305.707 291.918 305.374C291.595 305.042 291.344 304.648 291.177 304.216C291.011 303.784 290.934 303.323 290.95 302.86L294.14 206.48C294.183 205.527 294.59 204.626 295.276 203.962C295.962 203.298 296.875 202.922 297.83 202.91H432.63C433.094 202.908 433.553 203.001 433.98 203.181C434.407 203.361 434.794 203.626 435.116 203.96C435.438 204.293 435.69 204.688 435.856 205.121C436.021 205.555 436.098 206.017 436.08 206.48L432.89 302.86C432.851 303.813 432.448 304.714 431.763 305.377C431.077 306.04 430.163 306.413 429.21 306.42Z" fill="#23AFFF"/>
<path d="M427.47 306.25H264.66C263.859 306.25 263.075 306.475 262.396 306.899C261.717 307.323 261.171 307.93 260.82 308.65C260.73 308.838 260.69 309.046 260.702 309.255C260.715 309.463 260.78 309.664 260.892 309.84C261.004 310.016 261.159 310.161 261.342 310.261C261.526 310.36 261.731 310.412 261.94 310.41H430.19C430.399 310.413 430.606 310.363 430.791 310.264C430.976 310.165 431.132 310.021 431.245 309.845C431.358 309.668 431.425 309.466 431.438 309.257C431.451 309.048 431.41 308.839 431.32 308.65C430.968 307.929 430.42 307.322 429.739 306.898C429.058 306.474 428.272 306.249 427.47 306.25Z" fill="#23AFFF"/>
<path opacity="0.6" d="M427.47 306.25H402.47C401.668 306.249 400.882 306.474 400.201 306.898C399.52 307.322 398.972 307.929 398.62 308.65C398.53 308.839 398.489 309.048 398.502 309.257C398.515 309.466 398.582 309.668 398.695 309.845C398.808 310.021 398.964 310.165 399.149 310.264C399.334 310.363 399.541 310.413 399.75 310.41H430.14C430.349 310.413 430.556 310.363 430.741 310.264C430.926 310.165 431.082 310.021 431.195 309.845C431.308 309.668 431.375 309.466 431.388 309.257C431.401 309.048 431.36 308.839 431.27 308.65C430.921 307.937 430.381 307.335 429.71 306.911C429.039 306.487 428.264 306.258 427.47 306.25Z" fill="#263238"/>
<path opacity="0.2" d="M342.32 308.89H308.52C308.119 308.892 307.735 309.054 307.452 309.338C307.169 309.623 307.01 310.008 307.01 310.41H343.84C343.84 310.007 343.68 309.62 343.395 309.335C343.11 309.05 342.723 308.89 342.32 308.89Z" fill="black"/>
<path opacity="0.9" d="M294.17 299.37L297.17 209.97C297.188 209.599 297.347 209.248 297.614 208.99C297.882 208.731 298.238 208.585 298.61 208.58H431.61C431.791 208.579 431.97 208.614 432.136 208.684C432.303 208.754 432.453 208.857 432.579 208.987C432.704 209.117 432.802 209.271 432.866 209.44C432.929 209.609 432.958 209.79 432.95 209.97L429.95 299.37C429.937 299.742 429.781 300.094 429.515 300.353C429.248 300.612 428.892 300.758 428.52 300.76H295.52C295.339 300.762 295.159 300.726 294.992 300.656C294.825 300.587 294.674 300.484 294.548 300.354C294.422 300.224 294.323 300.07 294.258 299.901C294.193 299.732 294.163 299.551 294.17 299.37Z" fill="white"/>
<path d="M388.72 300.76H370.39L391.52 208.58H409.85L388.72 300.76Z" fill="white"/>
<path d="M309.13 300.76H302.53L323.66 208.58H330.25L309.13 300.76Z" fill="white"/>
<path d="M403.75 300.76H397.15L418.28 208.58H424.88L403.75 300.76Z" fill="white"/>
<path opacity="0.4" d="M366.18 205.899C366.155 206.17 366.031 206.422 365.832 206.607C365.632 206.791 365.372 206.896 365.1 206.899C364.835 206.899 364.58 206.794 364.393 206.607C364.205 206.419 364.1 206.165 364.1 205.899C364.12 205.627 364.243 205.372 364.443 205.187C364.644 205.001 364.907 204.899 365.18 204.899C365.445 204.899 365.7 205.005 365.887 205.192C366.075 205.38 366.18 205.634 366.18 205.899Z" fill="black"/>
<path d="M356.46 163.069C354.89 169.909 353.11 182.439 357.74 186.999C357.74 186.999 355.74 192.659 343.04 192.659C329.04 192.659 336.49 186.999 336.49 186.999C344.18 185.179 344.18 179.519 343.03 174.209L356.46 163.069Z" fill="#B55B52"/>
<path d="M376.81 195.56C377.81 197.09 378.63 198.43 379.45 199.89C380.27 201.35 381.08 202.77 381.86 204.22C383.4 207.14 384.86 210.11 386.18 213.16C387.5 216.21 388.74 219.32 389.79 222.54C390.897 225.809 391.779 229.15 392.43 232.54L392.56 233.19L392.62 233.51L392.71 234.03C392.815 234.738 392.868 235.453 392.87 236.17C392.856 237.362 392.729 238.551 392.49 239.72C392.062 241.65 391.443 243.533 390.64 245.34C389.242 248.51 387.569 251.551 385.64 254.43C383.78 257.22 381.82 259.86 379.74 262.43C377.677 264.978 375.488 267.421 373.18 269.75L367.66 265.43C370.66 260.08 373.77 254.6 376.3 249.17C377.55 246.581 378.616 243.908 379.49 241.17C379.857 240.032 380.105 238.859 380.23 237.67C380.275 237.278 380.275 236.882 380.23 236.49C380.23 236.38 380.23 236.28 380.15 236.27V236.21L380.08 235.95L379.93 235.44L379.33 233.44L378.63 231.39C378.16 230.02 377.63 228.65 377.09 227.29C375.98 224.55 374.74 221.83 373.45 219.12C372.16 216.41 370.74 213.73 369.31 211.06C368.603 209.726 367.873 208.393 367.12 207.06L364.9 203.23L376.81 195.56Z" fill="#B65B52"/>
<path d="M374.4 189.11C383.2 190.4 392.26 221.04 392.26 221.04L373.33 231.53C373.33 231.53 365.65 217 362 206.13C358.16 194.79 365 187.73 374.4 189.11Z" fill="#263238"/>
<path opacity="0.3" d="M368.67 205.899L367.24 218.999C368.67 222.149 370.07 224.999 371.16 227.249C371.57 221.999 371.56 213.459 368.67 205.899Z" fill="black"/>
<path d="M391.87 216.72L392.68 221.22L373.22 231.93L370.63 228.22L391.87 216.72Z" fill="#23AFFF"/>
<path opacity="0.3" d="M391.87 216.72L392.68 221.22L373.22 231.93L370.63 228.22L391.87 216.72Z" fill="#263238"/>
<path d="M370.13 263.29L360.82 261.67L365.6 272.44C365.6 272.44 374.09 272.39 373.7 268.01L370.13 263.29Z" fill="#B55B52"/>
<path d="M353.88 267.08L358.25 275.78L365.6 272.44L360.82 261.67L353.88 267.08Z" fill="#B55B52"/>
<path d="M322 189.59C322 189.59 310 217.81 318.65 270.37H368.65C369.26 262.7 365.73 225.27 374.39 189.11C368.892 188.044 363.33 187.339 357.74 187C350.663 186.59 343.567 186.59 336.49 187C331.6 187.488 326.756 188.354 322 189.59Z" fill="#263238"/>
<path opacity="0.3" d="M316.65 213.73C315.923 220.054 315.553 226.414 315.54 232.78C322.34 228.35 324.76 218.19 325.72 210.83L316.65 213.73Z" fill="black"/>
<path d="M328.78 203.279C326.87 206.559 324.94 209.579 322.92 212.659C320.9 215.739 318.83 218.729 316.66 221.659C312.301 227.714 307.523 233.454 302.36 238.839C299.622 241.682 296.648 244.288 293.47 246.629L292.17 247.529C291.61 247.869 291.03 248.239 290.49 248.529C289.448 249.067 288.369 249.528 287.26 249.909C285.284 250.565 283.261 251.073 281.21 251.429C277.422 252.048 273.589 252.353 269.75 252.339C267.88 252.339 266.01 252.339 264.16 252.149C262.31 251.959 260.48 251.879 258.56 251.599V244.599C261.93 244.019 265.43 243.369 268.77 242.659C270.45 242.309 272.12 241.929 273.77 241.509C275.42 241.089 276.99 240.649 278.49 240.139C279.923 239.693 281.321 239.138 282.67 238.479C283.224 238.201 283.762 237.89 284.28 237.549C284.53 237.399 284.68 237.239 284.88 237.099L285.74 236.419C288.185 234.347 290.474 232.097 292.59 229.689C297.076 224.516 301.273 219.097 305.16 213.459C307.16 210.619 309.09 207.719 311.03 204.819C312.97 201.919 314.84 198.909 316.62 196.069L328.78 203.279Z" fill="#B65B52"/>
<path d="M333.41 198C334.41 206.78 314.83 228.08 314.83 228.08L299.34 215.96C303.484 208.937 308.074 202.186 313.08 195.75C321.12 185.76 332.3 188.07 333.41 198Z" fill="#263238"/>
<path d="M300.48 211.89L298.99 216.21L314.82 229.21L317.96 225.96L300.48 211.89Z" fill="#23AFFF"/>
<path opacity="0.3" d="M300.48 211.89L298.99 216.21L314.82 229.21L317.96 225.96L300.48 211.89Z" fill="#263238"/>
<path d="M258.56 244.63L247.41 244.79L251.9 255.23C253.28 255.68 259.44 253.49 262.54 250.07L258.56 244.63Z" fill="#B55B52"/>
<path d="M239.72 250.2L245.81 257.84L251.9 255.22L247.41 244.79L239.72 250.2Z" fill="#B55B52"/>
<path d="M333.35 155C333.24 155.75 332.76 156.31 332.27 156.25C331.78 156.19 331.47 155.55 331.57 154.81C331.67 154.07 332.17 153.5 332.66 153.55C333.15 153.6 333.46 154.22 333.35 155Z" fill="#263238"/>
<path d="M333.56 155.64C332.331 157.832 330.815 159.85 329.05 161.64C330.2 163.02 332.54 162.7 332.54 162.7L333.56 155.64Z" fill="#A02724"/>
<path d="M332.29 161.16C330.62 161.16 329.11 158.75 328.84 155.67C328.585 153.958 329.001 152.213 330 150.8C330.171 150.593 330.385 150.426 330.626 150.308C330.868 150.191 331.132 150.127 331.4 150.12C333.07 150.12 334.58 152.52 334.85 155.6C335.116 157.313 334.707 159.062 333.71 160.48C333.537 160.685 333.323 160.851 333.082 160.968C332.841 161.085 332.578 161.151 332.31 161.16H332.29ZM331.39 150.62C331.197 150.631 331.008 150.682 330.836 150.77C330.664 150.857 330.512 150.98 330.39 151.13C329.496 152.448 329.139 154.058 329.39 155.63C329.63 158.36 330.98 160.63 332.39 160.63C332.584 160.617 332.773 160.565 332.945 160.475C333.117 160.386 333.268 160.261 333.39 160.11C334.289 158.798 334.647 157.19 334.39 155.62C334.1 152.92 332.75 150.62 331.39 150.62Z" fill="#263238"/>
<path d="M336 151.67C336.103 151.678 336.206 151.65 336.29 151.59C336.339 151.559 336.381 151.518 336.414 151.47C336.447 151.423 336.47 151.369 336.482 151.312C336.494 151.255 336.495 151.197 336.484 151.14C336.473 151.083 336.452 151.029 336.42 150.98C336.04 150.379 335.525 149.875 334.915 149.509C334.306 149.143 333.619 148.924 332.91 148.87C332.794 148.87 332.683 148.915 332.599 148.995C332.515 149.075 332.465 149.184 332.46 149.3C332.46 149.418 332.506 149.531 332.588 149.615C332.67 149.699 332.782 149.748 332.9 149.75C333.465 149.803 334.009 149.986 334.491 150.284C334.974 150.583 335.38 150.989 335.68 151.47C335.717 151.524 335.764 151.569 335.819 151.604C335.874 151.638 335.936 151.661 336 151.67Z" fill="#263238"/>
<path d="M358.93 154.87C357.03 163.98 356.39 169.39 351.05 173.58C349.332 174.96 347.27 175.845 345.086 176.138C342.902 176.431 340.68 176.122 338.659 175.244C336.638 174.366 334.895 172.952 333.619 171.155C332.343 169.358 331.583 167.247 331.42 165.05C330.64 156.6 333.87 143.13 343.42 140.47C345.469 139.845 347.647 139.769 349.735 140.249C351.822 140.73 353.748 141.75 355.318 143.207C356.888 144.665 358.048 146.51 358.682 148.556C359.316 150.603 359.401 152.78 358.93 154.87Z" fill="#B55B52"/>
<path d="M371.35 300.76C371.819 290.557 370.928 280.338 368.7 270.37H336.44C338.945 280.304 340.185 290.515 340.13 300.76H371.35Z" fill="#23AFFF"/>
<path opacity="0.3" d="M371.35 300.76C371.819 290.557 370.928 280.338 368.7 270.37H336.44C338.945 280.304 340.185 290.515 340.13 300.76H371.35Z" fill="white"/>
<path d="M339.17 157.61C337.39 156.72 335.17 147.83 335.78 144.67C336.39 141.51 343.56 138.11 350.61 139.39C357.66 140.67 360.69 143.14 362.06 149.56C363.47 156.22 358.33 167.31 355.79 168.17C354.284 168.703 352.682 168.91 351.091 168.775C349.499 168.641 347.955 168.168 346.56 167.39C344.29 166 343.11 155.78 339.17 157.61Z" fill="#263238"/>
<path d="M337.3 147.86C333.86 148.06 330.58 142.58 333.74 137.69C334.648 136.296 335.938 135.193 337.456 134.514C338.974 133.835 340.656 133.608 342.3 133.86C342.3 133.86 340.86 136.67 345.66 136.08C350.46 135.49 359.4 136.83 362.52 140.19C366.38 144.33 364.05 152.47 358.24 150.47C352.43 148.47 337.3 147.86 337.3 147.86Z" fill="#263238"/>
<path d="M336.38 147.999C335.661 147.965 334.957 147.778 334.315 147.45C333.674 147.123 333.11 146.662 332.66 146.099C331.761 145.025 331.179 143.722 330.978 142.336C330.776 140.95 330.964 139.535 331.52 138.249C331.532 138.218 331.551 138.19 331.574 138.167C331.598 138.143 331.625 138.124 331.656 138.111C331.687 138.098 331.72 138.091 331.753 138.091C331.786 138.091 331.819 138.097 331.85 138.109C331.881 138.122 331.909 138.14 331.933 138.164C331.956 138.187 331.975 138.215 331.988 138.245C332.001 138.276 332.008 138.309 332.008 138.342C332.009 138.375 332.002 138.408 331.99 138.439C331.462 139.637 331.281 140.959 331.466 142.254C331.652 143.55 332.197 144.768 333.04 145.769C333.503 146.39 334.127 146.871 334.845 147.16C335.563 147.449 336.346 147.535 337.11 147.409C337.173 147.397 337.239 147.408 337.295 147.441C337.35 147.475 337.391 147.527 337.41 147.589C337.426 147.654 337.415 147.723 337.382 147.78C337.348 147.838 337.294 147.881 337.23 147.899C336.952 147.967 336.666 148.001 336.38 147.999Z" fill="#263238"/>
<path d="M344.82 156.46C344.966 158.822 344.204 161.151 342.69 162.97C340.69 165.34 338.02 163.91 337.21 161.06C336.48 158.49 336.65 154.17 339.34 152.84C342.03 151.51 344.61 153.57 344.82 156.46Z" fill="#B55B52"/>
<path d="M314.45 300.76H350.3C352.034 290.728 352.461 280.512 351.57 270.37H318.67C318.67 270.37 316.82 283.2 314.45 300.76Z" fill="#23AFFF"/>
<path opacity="0.3" d="M314.45 300.76H350.3C352.034 290.728 352.461 280.512 351.57 270.37H318.67C318.67 270.37 316.82 283.2 314.45 300.76Z" fill="white"/>
</svg>
