<svg width="550" height="550" viewBox="0 0 550 550" fill="none" xmlns="http://www.w3.org/2000/svg">
<path d="M513.579 347.82H333.3V243.496H513.579V347.82ZM334.4 346.72H512.479V244.596H334.4V346.72Z" fill="#E0E0E0"/>
<path d="M476.388 299.123H357.445V302.61H476.388V299.123Z" fill="#F0F0F0"/>
<path d="M484.583 312.125H357.445V315.931H484.583V312.125Z" fill="#F0F0F0"/>
<path d="M484.583 325.281H357.445V329.087H484.583V325.281Z" fill="#F0F0F0"/>
<path d="M399.014 280.236H357.445V289.289H399.014V280.236Z" fill="#F0F0F0"/>
<path d="M513.029 244.046H333.883V260.656H513.029V244.046Z" fill="#E0E0E0"/>
<path d="M499.246 258.17C499.015 257.95 501.325 255.167 504.394 251.955C507.463 248.743 510.158 246.312 510.378 246.521C510.598 246.73 508.299 249.524 505.23 252.747C502.161 255.97 499.466 258.39 499.246 258.17Z" fill="white"/>
<path d="M510.4 258.17C510.18 258.39 507.496 255.97 504.416 252.747C501.336 249.524 499.037 246.741 499.268 246.521C499.499 246.301 502.172 248.721 505.252 251.955C508.332 255.189 510.609 257.95 510.4 258.17Z" fill="white"/>
<path d="M291.742 37.4551H112.596V140.69H291.742V37.4551Z" fill="#E6E6E6"/>
<path d="M255.112 92.543H136.169V96.03H255.112V92.543Z" fill="#F0F0F0"/>
<path d="M263.307 105.545H136.169V109.351H263.307V105.545Z" fill="#F0F0F0"/>
<path d="M263.307 118.701H136.169V122.507H263.307V118.701Z" fill="#F0F0F0"/>
<path d="M177.738 73.656H136.169V82.709H177.738V73.656Z" fill="#F0F0F0"/>
<path d="M291.742 37.4551H112.596V54.0651H291.742V37.4551Z" fill="#E0E0E0"/>
<path d="M277.354 51.5022C277.123 51.2932 279.433 48.4992 282.502 45.2872C285.571 42.0752 288.266 39.6442 288.486 39.8642C288.706 40.0842 286.407 42.8672 283.338 46.0792C280.269 49.2912 277.574 51.7002 277.354 51.5022Z" fill="white"/>
<path d="M288.486 51.502C288.266 51.722 285.582 49.302 282.502 46.079C279.422 42.856 277.123 40.084 277.354 39.864C277.585 39.644 280.258 42.064 283.338 45.287C286.418 48.51 288.717 51.293 288.486 51.502Z" fill="white"/>
<path d="M223.894 229.229H43.648V124.894H223.894V229.229ZM44.748 228.129H222.794V125.994H44.748V228.129Z" fill="#E0E0E0"/>
<path d="M186.714 180.532H67.771V184.019H186.714V180.532Z" fill="#F0F0F0"/>
<path d="M194.909 193.534H67.771V197.34H194.909V193.534Z" fill="#F0F0F0"/>
<path d="M194.909 206.69H67.771V210.496H194.909V206.69Z" fill="#F0F0F0"/>
<path d="M109.34 161.645H67.771V170.698H109.34V161.645Z" fill="#F0F0F0"/>
<path d="M223.344 125.444H44.198V142.054H223.344V125.444Z" fill="#E0E0E0"/>
<path d="M431.915 253.132H220.385V442.508H431.915V253.132Z" fill="#E6E6E6"/>
<path d="M231.022 193.479H65.318V365.64H231.022V193.479Z" fill="#F0F0F0"/>
<path d="M231.022 193.479H65.318V212.234H231.022V193.479Z" fill="#E0E0E0"/>
<path d="M79.002 202.664C78.9718 203.344 78.7426 204.001 78.3428 204.552C77.943 205.103 77.3902 205.524 76.753 205.764C76.1157 206.003 75.4222 206.051 74.7584 205.9C74.0945 205.749 73.4897 205.406 73.0188 204.914C72.548 204.423 72.2319 203.803 72.1098 203.134C71.9877 202.464 72.0649 201.773 72.3319 201.147C72.599 200.521 73.044 199.987 73.6118 199.611C74.1796 199.235 74.8452 199.035 75.526 199.034C76.4674 199.057 77.3615 199.452 78.0128 200.132C78.6641 200.812 79.0197 201.723 79.002 202.664Z" fill="white"/>
<path d="M93.115 202.664C93.0869 203.348 92.8586 204.008 92.4583 204.562C92.058 205.117 91.5035 205.541 90.8637 205.783C90.224 206.025 89.5272 206.073 88.8602 205.922C88.1932 205.771 87.5854 205.427 87.1124 204.933C86.6394 204.439 86.3221 203.817 86.2 203.144C86.0778 202.471 86.1563 201.777 86.4256 201.148C86.6949 200.52 87.1431 199.984 87.7144 199.608C88.2858 199.232 88.9551 199.033 89.639 199.034C90.5804 199.057 91.4745 199.452 92.1258 200.132C92.7771 200.812 93.1327 201.723 93.115 202.664Z" fill="white"/>
<path d="M107.228 202.664C107.2 203.348 106.972 204.008 106.571 204.562C106.171 205.117 105.617 205.541 104.977 205.783C104.337 206.025 103.64 206.073 102.973 205.922C102.306 205.771 101.698 205.427 101.225 204.933C100.752 204.439 100.435 203.817 100.313 203.144C100.191 202.471 100.269 201.777 100.539 201.148C100.808 200.52 101.256 199.984 101.827 199.608C102.399 199.232 103.068 199.033 103.752 199.034C104.693 199.057 105.587 199.452 106.239 200.132C106.89 200.812 107.246 201.723 107.228 202.664Z" fill="white"/>
<path d="M489.918 75.1082H278.388V285.934H489.918V75.1082Z" fill="#F0F0F0"/>
<path d="M489.918 75.1082H278.388V99.8032H489.918V75.1082Z" fill="#E0E0E0"/>
<path d="M296.406 87.2081C296.367 88.1059 296.066 88.9725 295.539 89.7003C295.012 90.4281 294.282 90.9852 293.442 91.3022C292.601 91.6192 291.685 91.6822 290.809 91.4835C289.933 91.2848 289.134 90.8331 288.512 90.1844C287.89 89.5357 287.473 88.7186 287.311 87.8346C287.15 86.9507 287.251 86.0387 287.603 85.212C287.956 84.3853 288.543 83.6803 289.292 83.1845C290.042 82.6887 290.92 82.4239 291.819 82.4231C293.061 82.452 294.241 82.9717 295.101 83.8684C295.96 84.7652 296.43 85.966 296.406 87.2081Z" fill="white"/>
<path d="M313.643 83.9741C314.253 84.6363 314.654 85.4634 314.797 86.3522C314.941 87.241 314.819 88.1523 314.448 88.9724C314.077 89.7926 313.472 90.4854 312.71 90.9646C311.948 91.4438 311.062 91.688 310.162 91.667C309.262 91.646 308.388 91.3607 307.649 90.8465C306.91 90.3323 306.339 89.6121 306.006 88.7755C305.674 87.9389 305.595 87.0229 305.779 86.1418C305.963 85.2606 306.403 84.4532 307.043 83.8201C307.94 82.967 309.138 82.5041 310.375 82.533C311.612 82.5619 312.787 83.0801 313.643 83.9741Z" fill="white"/>
<path d="M333.564 87.2081C333.525 88.1059 333.224 88.9725 332.697 89.7003C332.17 90.4281 331.44 90.9852 330.6 91.3022C329.759 91.6192 328.843 91.6822 327.967 91.4835C327.091 91.2848 326.292 90.8331 325.67 90.1844C325.048 89.5357 324.631 88.7186 324.469 87.8346C324.307 86.9507 324.409 86.0387 324.761 85.212C325.114 84.3853 325.701 83.6803 326.45 83.1845C327.2 82.6887 328.078 82.4239 328.977 82.4231C330.219 82.452 331.399 82.9717 332.259 83.8684C333.118 84.7652 333.588 85.966 333.564 87.2081Z" fill="white"/>
<path d="M444.224 498.443C444.224 498.597 367.84 498.729 273.647 498.729C179.454 498.729 103.037 498.597 103.037 498.443C103.037 498.289 179.41 498.157 273.647 498.157C367.884 498.157 444.224 498.3 444.224 498.443Z" fill="#263238"/>
<path d="M369.798 363.781C352.803 351.912 348.953 329.879 349.624 310.068C349.734 306.768 349.371 303.27 350.944 300.377C352.517 297.484 356.191 295.493 359.15 296.879C361.603 298.034 362.67 300.894 364.045 303.259C365.88 306.409 368.568 308.975 371.8 310.662C373.901 311.762 376.508 312.422 378.587 311.278C381.447 309.705 381.777 305.778 381.755 302.478C381.755 296.34 381.718 290.209 381.645 284.086C381.447 280.798 381.782 277.499 382.635 274.318C383.658 271.194 385.935 268.301 389.048 267.421C392.161 266.541 396.044 268.356 396.748 271.568C396.869 272.928 396.902 274.295 396.847 275.66C396.935 277.035 397.573 278.542 398.86 278.96C400.147 279.378 401.489 278.421 402.479 277.453C405.867 274.153 408.177 269.852 410.322 265.606C412.467 261.36 414.568 256.993 417.648 253.374C420.728 249.755 424.985 246.884 429.748 246.609C434.511 246.334 439.472 249.26 440.66 253.88C441.848 258.5 439.153 263.219 436.26 266.97C431.894 272.538 426.748 277.447 420.981 281.545C419.855 282.16 418.957 283.12 418.418 284.284C417.703 286.484 419.782 288.684 421.949 289.377C424.402 290.191 427.064 289.938 429.649 290.246C432.234 290.554 434.984 291.676 435.963 294.096C437.305 297.462 434.489 300.982 431.728 303.292C426.184 307.912 419.889 311.547 413.116 314.039C410.696 314.919 408.155 315.7 406.197 317.394C404.239 319.088 403.073 322.047 404.25 324.368C405.427 326.689 408.452 327.426 410.993 326.953C413.534 326.48 415.789 325.116 418.209 324.203C422.73 322.498 428.56 322.806 431.409 326.711C432.292 328.056 432.85 329.588 433.041 331.185C433.232 332.783 433.05 334.403 432.509 335.918C431.408 338.933 429.714 341.698 427.526 344.047C420.321 352.655 410.961 359.195 400.4 363C389.917 366.63 380.204 367.62 369.787 363.803" fill="#23AFFF"/>
<path d="M435.82 249.326C435.82 249.326 435.721 249.436 435.501 249.634L434.522 250.503C433.664 251.273 432.399 252.395 430.804 253.88C426.282 258.079 422.083 262.613 418.242 267.443C415.789 270.49 413.248 273.944 410.542 277.695C407.836 281.446 405.042 285.494 402.27 289.795C399.315 294.33 396.608 299.023 394.163 303.853C392.887 306.372 391.765 309.001 390.61 311.685L387.2 319.88C382.705 330.202 378.79 340.768 375.474 351.527C372.803 360.33 370.961 369.364 369.974 378.51C369.334 384.682 369.231 390.899 369.666 397.089C369.842 399.289 370.007 400.972 370.161 402.116C370.227 402.666 370.271 403.106 370.315 403.425V403.876C370.268 403.733 370.235 403.585 370.216 403.436C370.161 403.117 370.095 402.688 370.007 402.138C369.809 401.038 369.6 399.3 369.402 397.1C368.871 390.898 368.908 384.661 369.512 378.466C370.438 369.281 372.239 360.205 374.891 351.362C378.18 340.573 382.084 329.981 386.584 319.638L390.082 311.476C391.237 308.803 392.37 306.152 393.657 303.622C396.119 298.778 398.848 294.074 401.83 289.531C404.646 285.131 407.484 281.149 410.157 277.431C412.83 273.713 415.415 270.237 417.857 267.201C421.737 262.383 425.992 257.881 430.584 253.737C432.212 252.274 433.51 251.174 434.39 250.437L435.413 249.612C435.538 249.503 435.675 249.407 435.82 249.326Z" fill="#263238"/>
<path d="M393.8 303.6C393.645 303.147 393.538 302.678 393.481 302.203C393.305 301.29 393.107 300.003 392.876 298.331C392.403 295.031 391.919 290.51 391.402 285.505C390.885 280.5 390.302 275.968 389.818 272.701C389.565 271.073 389.345 269.764 389.191 268.851C389.071 268.384 389.008 267.903 389.004 267.421C389.193 267.862 389.33 268.323 389.411 268.796C389.653 269.698 389.928 270.996 390.236 272.635C390.863 275.935 391.479 280.423 391.996 285.439C392.513 290.455 392.953 294.855 393.294 298.276C393.459 299.816 393.602 301.125 393.712 302.17C393.797 302.641 393.827 303.121 393.8 303.6Z" fill="#263238"/>
<path d="M436.128 295.702C435.593 295.818 435.048 295.885 434.5 295.9C433.4 295.999 431.838 296.131 429.902 296.351C426.03 296.769 420.706 297.539 414.865 298.639C409.024 299.739 403.777 300.982 400.004 301.939C398.123 302.423 396.605 302.863 395.604 303.16C395.07 303.35 394.516 303.483 393.954 303.556C394.462 303.3 394.992 303.091 395.538 302.929C396.572 302.566 398.068 302.06 399.938 301.521C403.689 300.421 408.936 299.112 414.799 297.99C419.765 297.04 424.777 296.343 429.814 295.9C431.761 295.735 433.334 295.669 434.434 295.647C434.999 295.608 435.567 295.627 436.128 295.702Z" fill="#263238"/>
<path d="M375.43 350.592C375.313 350.433 375.217 350.259 375.144 350.075L374.418 348.546C373.791 347.215 372.944 345.246 371.932 342.837C369.886 337.997 367.279 331.221 364.507 323.697C361.735 316.173 359.183 309.397 357.247 304.502C356.301 302.126 355.52 300.179 354.937 298.727L354.321 297.154C354.236 296.972 354.176 296.78 354.145 296.582C354.262 296.741 354.358 296.915 354.431 297.099L355.157 298.628C355.773 299.959 356.631 301.928 357.643 304.337C359.689 309.177 362.296 315.953 365.068 323.477C367.84 331.001 370.392 337.777 372.328 342.672C373.274 345.048 374.055 346.995 374.627 348.447C374.88 349.074 375.089 349.547 375.254 350.02C375.339 350.201 375.399 350.394 375.43 350.592Z" fill="#263238"/>
<path d="M431.618 332.475C431.442 332.576 431.253 332.654 431.057 332.706L429.429 333.256L423.412 335.203C418.33 336.853 411.312 339.207 403.612 341.803C395.912 344.399 388.861 346.709 383.746 348.249C381.194 349.03 379.115 349.624 377.674 350.02L376.013 350.449C375.82 350.51 375.621 350.551 375.419 350.57C375.595 350.469 375.784 350.391 375.98 350.339L377.608 349.789L383.625 347.842C388.707 346.192 395.725 343.838 403.425 341.242C411.125 338.646 418.165 336.336 423.28 334.796C425.843 334.015 427.911 333.421 429.363 333.025L431.024 332.596C431.217 332.534 431.416 332.494 431.618 332.475Z" fill="#263238"/>
<path d="M408.694 65.6479L403.029 67.6719L400.598 60.2689C396.132 46.6179 381.898 39.3689 368.819 43.9779C355.74 48.5869 348.777 63.5579 353.243 77.2089L355.674 84.6119L349.987 86.6469C347.818 87.488 346.057 89.1325 345.07 91.2384C344.083 93.3444 343.945 95.7499 344.685 97.9549L360.448 146.124C360.775 147.215 361.318 148.23 362.045 149.108C362.773 149.985 363.669 150.707 364.68 151.232C365.692 151.756 366.799 152.072 367.935 152.16C369.071 152.248 370.213 152.107 371.294 151.745L430.001 130.746C432.198 129.906 433.984 128.247 434.983 126.118C435.982 123.988 436.117 121.554 435.358 119.328L419.584 71.1589C419.248 70.0704 418.697 69.0607 417.962 68.19C417.228 67.3193 416.325 66.6055 415.309 66.0911C414.293 65.5768 413.183 65.2725 412.047 65.1963C410.91 65.1202 409.77 65.2737 408.694 65.6479ZM363.946 73.3479C362.742 69.7984 362.958 65.9207 364.549 62.527C366.14 59.1334 368.983 56.4872 372.482 55.1429C374.21 54.5518 376.039 54.3147 377.86 54.4459C379.681 54.5771 381.457 55.0738 383.082 55.9064C384.708 56.7389 386.148 57.8904 387.319 59.2919C388.489 60.6934 389.365 62.3164 389.895 64.0639L392.315 71.4669L366.366 80.7509L363.946 73.3479ZM396.946 116.094L400.972 128.392C401.046 128.638 401.022 128.904 400.905 129.134C400.788 129.363 400.588 129.539 400.345 129.624L394.702 131.637C394.477 131.699 394.237 131.672 394.032 131.561C393.827 131.451 393.673 131.265 393.602 131.043L389.543 118.8C387.305 118.678 385.157 117.875 383.388 116.499C381.619 115.123 380.312 113.239 379.643 111.1C378.686 108.272 378.861 105.183 380.13 102.481C381.399 99.7783 383.665 97.6717 386.452 96.6019C387.828 96.1317 389.285 95.9433 390.736 96.0481C392.186 96.1529 393.601 96.5486 394.895 97.2117C396.19 97.8748 397.337 98.7917 398.27 99.9078C399.202 101.024 399.901 102.316 400.323 103.708C401.031 105.881 401.089 108.213 400.491 110.419C399.893 112.625 398.665 114.609 396.957 116.127L396.946 116.094Z" fill="#23AFFF"/>
<path d="M402.776 67.5398C402.776 67.6938 392.271 71.6428 379.203 76.3398C366.135 81.0368 355.476 84.8098 355.421 84.6998C355.366 84.5898 365.926 80.6078 379.005 75.8998C392.084 71.1918 402.721 67.3968 402.776 67.5398Z" fill="#263238"/>
<path d="M415.25 69.564C415.298 69.6594 415.339 69.7588 415.371 69.861C415.459 70.081 415.558 70.367 415.69 70.719C415.976 71.522 416.372 72.633 416.867 74.019L421.091 86.317C422.851 91.531 424.952 97.713 427.284 104.577C428.384 108.02 429.682 111.606 430.892 115.379C431.54 117.323 431.819 119.371 431.717 121.418C431.624 122.482 431.321 123.518 430.826 124.465C430.297 125.409 429.591 126.242 428.747 126.918C427.048 128.159 425.161 129.12 423.159 129.767L417.494 131.802L406.769 135.641L388.608 142.109L376.343 146.421L373.043 147.521L372.163 147.807C372.069 147.849 371.969 147.875 371.866 147.884C371.866 147.884 371.954 147.884 372.141 147.752L372.999 147.411L376.299 146.168L388.498 141.68L406.626 135.08L417.329 131.208L422.994 129.162C424.939 128.542 426.771 127.609 428.417 126.401C429.203 125.773 429.86 125 430.353 124.124C430.819 123.248 431.1 122.286 431.178 121.297C431.279 119.325 431.011 117.351 430.386 115.478C429.198 111.738 427.944 108.119 426.811 104.676C424.523 97.801 422.411 91.597 420.739 86.383C419.067 81.169 417.659 76.978 416.691 74.03C416.229 72.589 415.877 71.467 415.591 70.653L415.327 69.773C415.294 69.7063 415.268 69.6362 415.25 69.564Z" fill="#263238"/>
<path d="M384.274 54.3948C384.274 54.3948 383.691 54.1088 382.613 53.6688C381.076 53.0784 379.451 52.7511 377.806 52.7008C375.367 52.6172 372.94 53.0755 370.7 54.0428C367.976 55.2472 365.646 57.1955 363.979 59.6638C362.301 62.1251 361.4 65.0337 361.394 68.0128C361.417 70.4545 361.787 72.8805 362.494 75.2178C363.066 77.2198 363.66 78.8148 364.056 79.9258C364.29 80.4901 364.481 81.071 364.628 81.6638C364.315 81.1362 364.054 80.58 363.847 80.0028C363.396 78.9028 362.747 77.3408 362.109 75.3278C361.326 72.9659 360.899 70.5005 360.844 68.0128C360.815 64.9211 361.736 61.8952 363.484 59.3448C365.209 56.7863 367.634 54.7778 370.469 53.5588C372.779 52.5862 375.282 52.1572 377.784 52.3048C379.465 52.3904 381.116 52.7818 382.657 53.4598C383.069 53.6498 383.466 53.8704 383.845 54.1198C384.001 54.1885 384.146 54.2813 384.274 54.3948Z" fill="#263238"/>
<path d="M384.78 97.438C384.956 97.3316 385.139 97.2396 385.33 97.163C385.881 96.9145 386.451 96.7122 387.035 96.558C387.962 96.2843 388.918 96.1219 389.884 96.074C391.197 96.0034 392.511 96.2018 393.745 96.657C396.561 97.647 399.146 100.518 400.422 104.357C401.034 106.417 401.034 108.611 400.422 110.671C399.743 112.907 398.527 114.943 396.88 116.6L396.946 116.303C398.409 120.318 400.004 124.674 401.654 129.217L401.753 129.492L401.478 129.591L398.959 130.427L393.459 132.264L393.184 132.352L393.096 132.077C391.589 127.523 389.939 123.277 388.696 119.108L388.938 119.295C386.788 119.116 384.737 118.309 383.042 116.974C381.508 115.793 380.251 114.291 379.357 112.574C378.551 111.051 378.149 109.347 378.191 107.624C378.242 105.863 378.681 104.136 379.478 102.565C380.275 100.994 381.409 99.619 382.8 98.538C383.372 98.0733 384.015 97.7021 384.703 97.438C384.082 97.8066 383.479 98.2068 382.899 98.637C381.371 99.9293 380.201 101.592 379.5 103.466C378.898 104.879 378.617 106.408 378.676 107.943C378.735 109.477 379.133 110.98 379.841 112.343C380.72 113.995 381.947 115.436 383.438 116.567C385.055 117.836 387.01 118.601 389.059 118.767H389.246L389.301 118.932C390.511 123.024 392.172 127.303 393.701 131.879L393.338 131.703L398.838 129.866L401.346 129.019L401.17 129.393C399.531 124.85 397.947 120.483 396.495 116.468V116.303L396.627 116.171C398.226 114.582 399.419 112.632 400.103 110.484C400.686 108.513 400.686 106.416 400.103 104.445C398.904 100.749 396.429 97.944 393.745 96.954C392.557 96.4959 391.289 96.2826 390.016 96.327C389.066 96.3487 388.121 96.4779 387.2 96.712C385.561 97.119 384.791 97.493 384.78 97.438Z" fill="#263238"/>
<path d="M350.779 415.052L240.9 414.546C234.555 414.511 228.482 411.959 224.017 407.451C219.552 402.942 217.059 396.845 217.085 390.5L218.251 115.049C218.264 111.905 218.896 108.795 220.112 105.896C221.328 102.996 223.103 100.365 225.336 98.1526C227.569 95.9398 230.217 94.1889 233.127 92.9999C236.037 91.8108 239.153 91.207 242.297 91.223L352.165 91.729C358.51 91.761 364.584 94.3102 369.051 98.8167C373.518 103.323 376.014 109.419 375.991 115.764L374.825 391.204C374.812 394.349 374.18 397.46 372.964 400.361C371.749 403.261 369.974 405.894 367.741 408.108C365.508 410.323 362.861 412.076 359.951 413.267C357.04 414.458 353.924 415.065 350.779 415.052Z" fill="#455A64"/>
<path d="M352 101.2H330.704C330.009 101.213 329.324 101.363 328.687 101.64C328.05 101.918 327.474 102.319 326.991 102.819C326.509 103.32 326.131 103.911 325.877 104.558C325.623 105.204 325.499 105.895 325.512 106.59V110.451C325.525 111.145 325.401 111.835 325.147 112.482C324.893 113.128 324.514 113.718 324.032 114.218C323.55 114.717 322.974 115.117 322.337 115.394C321.7 115.67 321.014 115.819 320.32 115.83L278.806 115.643C277.402 115.606 276.07 115.012 275.102 113.993C274.135 112.975 273.612 111.613 273.647 110.209V106.348C273.683 104.945 273.161 103.586 272.196 102.567C271.231 101.549 269.902 100.954 268.499 100.914H261.008L242.363 100.826C237.928 100.8 233.664 102.532 230.503 105.643C227.343 108.754 225.544 112.99 225.5 117.425L224.4 386.287C224.39 388.487 224.813 390.668 225.646 392.704C226.478 394.74 227.704 396.593 229.252 398.156C230.801 399.719 232.642 400.961 234.671 401.812C236.7 402.664 238.876 403.107 241.076 403.117L350.724 403.623C352.926 403.633 355.107 403.21 357.145 402.376C359.183 401.543 361.037 400.317 362.601 398.767C364.164 397.218 365.408 395.375 366.26 393.345C367.111 391.315 367.555 389.137 367.565 386.936L368.665 118.074C368.691 113.627 366.951 109.351 363.826 106.187C360.701 103.023 356.447 101.229 352 101.2Z" fill="white"/>
<path d="M337.249 367.752L255.717 367.4C254.87 367.4 254.188 366.476 254.199 365.354L254.287 344.025C254.287 342.925 254.98 341.979 255.827 341.979L337.359 342.353C337.828 342.434 338.248 342.693 338.531 343.077C338.814 343.46 338.938 343.938 338.877 344.41L338.8 365.717C338.8 366.85 338.096 367.763 337.249 367.752Z" fill="#23AFFF"/>
<path d="M281.799 351.881C281.764 351.588 281.624 351.361 281.378 351.199C281.131 351.038 280.829 350.957 280.471 350.957C280.209 350.957 279.98 350.999 279.784 351.084C279.589 351.169 279.437 351.285 279.327 351.433C279.22 351.582 279.166 351.75 279.166 351.939C279.166 352.097 279.203 352.232 279.278 352.346C279.355 352.457 279.454 352.551 279.573 352.626C279.692 352.699 279.817 352.76 279.948 352.808C280.079 352.854 280.199 352.892 280.309 352.92L280.91 353.082C281.064 353.123 281.235 353.178 281.424 353.25C281.614 353.321 281.796 353.418 281.97 353.541C282.145 353.663 282.289 353.818 282.403 354.009C282.516 354.2 282.573 354.433 282.573 354.711C282.573 355.03 282.489 355.319 282.322 355.577C282.156 355.835 281.914 356.04 281.594 356.192C281.276 356.344 280.891 356.42 280.436 356.42C280.013 356.42 279.646 356.352 279.336 356.215C279.028 356.078 278.786 355.888 278.608 355.643C278.433 355.399 278.334 355.115 278.311 354.792H279.05C279.069 355.015 279.145 355.2 279.275 355.346C279.408 355.49 279.576 355.598 279.778 355.669C279.982 355.739 280.201 355.773 280.436 355.773C280.71 355.773 280.955 355.729 281.173 355.64C281.39 355.55 281.562 355.425 281.689 355.265C281.816 355.103 281.88 354.915 281.88 354.699C281.88 354.503 281.825 354.343 281.715 354.22C281.606 354.097 281.461 353.997 281.282 353.92C281.103 353.843 280.91 353.775 280.702 353.717L279.974 353.509C279.512 353.377 279.146 353.187 278.877 352.941C278.607 352.694 278.473 352.372 278.473 351.973C278.473 351.642 278.562 351.353 278.741 351.107C278.922 350.859 279.165 350.666 279.469 350.53C279.775 350.391 280.117 350.322 280.494 350.322C280.875 350.322 281.214 350.39 281.51 350.527C281.807 350.661 282.042 350.846 282.215 351.081C282.39 351.316 282.483 351.583 282.492 351.881H281.799ZM284.466 350.402V356.316H283.75V350.402H284.466ZM290.592 350.402V356.316H289.899L286.676 351.673H286.618V356.316H285.902V350.402H286.595L289.829 355.057H289.887V350.402H290.592ZM296.067 352.251C296.004 352.056 295.92 351.882 295.816 351.728C295.714 351.572 295.592 351.439 295.449 351.329C295.309 351.22 295.149 351.136 294.97 351.078C294.791 351.02 294.595 350.992 294.381 350.992C294.03 350.992 293.712 351.082 293.425 351.263C293.138 351.444 292.91 351.711 292.741 352.063C292.571 352.415 292.487 352.847 292.487 353.359C292.487 353.871 292.572 354.304 292.744 354.656C292.915 355.008 293.147 355.275 293.439 355.456C293.732 355.637 294.061 355.727 294.427 355.727C294.766 355.727 295.064 355.655 295.322 355.511C295.582 355.364 295.784 355.158 295.929 354.893C296.075 354.625 296.148 354.31 296.148 353.948L296.367 353.995H294.589V353.359H296.841V353.995C296.841 354.482 296.737 354.905 296.529 355.265C296.323 355.625 296.038 355.904 295.674 356.102C295.313 356.299 294.897 356.397 294.427 356.397C293.903 356.397 293.443 356.274 293.047 356.027C292.652 355.781 292.344 355.431 292.123 354.976C291.903 354.522 291.794 353.983 291.794 353.359C291.794 352.892 291.856 352.471 291.981 352.097C292.108 351.722 292.287 351.403 292.518 351.139C292.749 350.875 293.023 350.673 293.338 350.532C293.654 350.392 294.002 350.322 294.381 350.322C294.693 350.322 294.983 350.369 295.253 350.463C295.524 350.556 295.766 350.687 295.978 350.859C296.191 351.028 296.369 351.231 296.512 351.468C296.654 351.703 296.752 351.964 296.806 352.251H296.067ZM304.235 350.402H304.951V354.318C304.951 354.722 304.856 355.083 304.665 355.401C304.477 355.717 304.21 355.966 303.866 356.149C303.521 356.33 303.117 356.42 302.653 356.42C302.189 356.42 301.785 356.33 301.44 356.149C301.096 355.966 300.828 355.717 300.637 355.401C300.449 355.083 300.354 354.722 300.354 354.318V350.402H301.071V354.26C301.071 354.549 301.134 354.806 301.261 355.031C301.388 355.255 301.569 355.431 301.804 355.56C302.041 355.687 302.324 355.75 302.653 355.75C302.982 355.75 303.265 355.687 303.502 355.56C303.739 355.431 303.92 355.255 304.045 355.031C304.172 354.806 304.235 354.549 304.235 354.26V350.402ZM306.381 356.316V350.402H308.38C308.844 350.402 309.223 350.486 309.517 350.654C309.814 350.819 310.033 351.044 310.176 351.327C310.318 351.609 310.389 351.925 310.389 352.274C310.389 352.622 310.318 352.939 310.176 353.224C310.035 353.509 309.818 353.736 309.523 353.905C309.229 354.073 308.851 354.156 308.391 354.156H306.959V353.521H308.368C308.686 353.521 308.941 353.466 309.133 353.356C309.326 353.247 309.465 353.098 309.552 352.912C309.64 352.723 309.685 352.51 309.685 352.274C309.685 352.037 309.64 351.825 309.552 351.638C309.465 351.452 309.325 351.305 309.13 351.199C308.936 351.092 308.678 351.038 308.356 351.038H307.098V356.316H306.381Z" fill="#E8E8E3"/>
<path d="M271.98 180.235L243.688 180.107L243.664 185.299L271.956 185.427L271.98 180.235Z" fill="#23AFFF"/>
<path opacity="0.1" d="M271.98 180.235L243.688 180.107L243.664 185.299L271.956 185.427L271.98 180.235Z" fill="black"/>
<path d="M354.915 212.113C355.137 212.09 355.355 212.039 355.564 211.959C355.868 211.84 356.133 211.637 356.328 211.375C356.522 211.112 356.639 210.8 356.664 210.474C356.664 208.725 356.664 206.173 356.664 202.895C356.664 201.256 356.664 199.419 356.664 197.395C356.664 196.9 356.664 196.383 356.664 195.866C356.736 195.364 356.627 194.853 356.356 194.425C356.205 194.219 356.008 194.052 355.78 193.935C355.553 193.819 355.302 193.757 355.047 193.754H353.331H337.436L245.432 193.413C245.197 193.409 244.964 193.462 244.753 193.567C244.542 193.672 244.36 193.827 244.222 194.018C243.956 194.448 243.855 194.96 243.936 195.459C243.936 196.559 243.936 197.659 243.936 198.759C243.936 200.959 243.936 203.159 243.936 205.359C243.936 206.459 243.936 207.559 243.936 208.659C243.89 209.171 243.89 209.687 243.936 210.199C243.994 210.419 244.101 210.622 244.25 210.794C244.399 210.965 244.585 211.1 244.794 211.189C245.011 211.275 245.243 211.316 245.476 211.31H251.075L275.506 211.442L316.866 211.695L344.751 211.915L352.33 212.003H354.299C354.75 212.003 354.97 212.003 354.97 212.003H354.299H352.33H344.751H316.866L275.506 211.871L251.075 211.772H245.476C245.168 211.784 244.861 211.732 244.574 211.618C244.284 211.494 244.027 211.306 243.821 211.068C243.615 210.83 243.466 210.547 243.386 210.243C243.322 209.954 243.3 209.658 243.32 209.363V208.549C243.32 207.449 243.32 206.349 243.32 205.249C243.32 203.049 243.32 200.849 243.32 198.649C243.32 197.549 243.32 196.449 243.32 195.349C243.299 195.056 243.299 194.762 243.32 194.469C243.361 194.145 243.486 193.838 243.683 193.578C243.873 193.312 244.124 193.097 244.415 192.949C244.706 192.802 245.029 192.727 245.355 192.731L337.359 193.237L353.254 193.347H354.97C355.272 193.347 355.57 193.42 355.838 193.56C356.106 193.7 356.337 193.902 356.51 194.15C356.82 194.628 356.945 195.203 356.862 195.767C356.862 196.284 356.862 196.801 356.862 197.296C356.862 199.298 356.862 201.135 356.862 202.796C356.862 206.096 356.785 208.626 356.763 210.386C356.736 210.724 356.613 211.048 356.409 211.319C356.204 211.59 355.926 211.796 355.608 211.915C355.4 212.044 355.16 212.112 354.915 212.113Z" fill="#E0E0E0"/>
<path d="M303.93 198.935H252.186V203.786H303.93V198.935Z" fill="#23AFFF"/>
<path opacity="0.2" d="M303.93 198.935H252.186V203.786H303.93V198.935Z" fill="white"/>
<path d="M271.787 227.6L243.495 227.471L243.471 232.663L271.763 232.792L271.787 227.6Z" fill="#23AFFF"/>
<path opacity="0.1" d="M271.787 227.6L243.495 227.471L243.471 232.663L271.763 232.792L271.787 227.6Z" fill="black"/>
<path d="M354.2 259.479C354.422 259.452 354.643 259.411 354.86 259.358C355.167 259.26 355.45 259.098 355.689 258.881C355.928 258.665 356.118 258.4 356.246 258.104C356.419 257.66 356.487 257.182 356.444 256.707C356.444 256.179 356.444 255.607 356.444 254.969C356.444 253.693 356.444 252.241 356.444 250.569V243.584C356.497 243.078 356.385 242.569 356.125 242.132C355.854 241.684 355.427 241.351 354.926 241.197C354.378 241.099 353.82 241.07 353.265 241.109H337.436L245.751 240.768C245.258 240.769 244.782 240.949 244.412 241.275C244.041 241.601 243.802 242.05 243.738 242.539C243.738 243.584 243.738 244.739 243.738 245.839C243.738 248.039 243.738 250.239 243.738 252.439C243.738 253.539 243.738 254.639 243.738 255.739C243.697 256.253 243.719 256.77 243.804 257.279C243.941 257.725 244.224 258.112 244.607 258.379C245.013 258.637 245.491 258.76 245.971 258.731H247.5H250.679L275.022 258.852L316.239 259.105L344.025 259.325L351.582 259.413H344.025H316.239L275 259.369L250.657 259.281H245.872C245.277 259.316 244.687 259.158 244.189 258.83C243.689 258.483 243.323 257.974 243.155 257.389C243.056 256.83 243.027 256.261 243.067 255.695C243.067 254.595 243.067 253.495 243.067 252.395C243.067 250.195 243.067 247.995 243.067 245.795C243.067 244.695 243.067 243.595 243.067 242.495C243.147 241.866 243.454 241.288 243.93 240.869C244.406 240.45 245.018 240.218 245.652 240.218L337.337 240.724L353.166 240.845C353.755 240.809 354.347 240.85 354.926 240.966C355.498 241.153 355.98 241.545 356.279 242.066C356.564 242.551 356.687 243.113 356.631 243.672C356.631 244.189 356.631 244.695 356.631 245.201C356.631 247.192 356.631 249.018 356.631 250.701C356.631 252.384 356.631 253.803 356.631 255.101C356.631 255.728 356.631 256.311 356.631 256.85C356.671 257.342 356.592 257.836 356.4 258.291C356.257 258.595 356.051 258.864 355.794 259.08C355.538 259.297 355.238 259.455 354.915 259.545C354.675 259.565 354.433 259.543 354.2 259.479Z" fill="#E0E0E0"/>
<path d="M271.573 277.021L243.282 276.893L243.258 282.085L271.55 282.213L271.573 277.021Z" fill="#23AFFF"/>
<path opacity="0.1" d="M271.573 277.021L243.282 276.893L243.258 282.085L271.55 282.213L271.573 277.021Z" fill="black"/>
<path d="M353.98 308.88C354.202 308.854 354.423 308.813 354.64 308.759C354.946 308.662 355.228 308.501 355.467 308.286C355.706 308.072 355.896 307.81 356.026 307.516C356.199 307.072 356.266 306.594 356.224 306.119C356.224 305.58 356.224 305.019 356.224 304.37C356.224 303.105 356.224 301.642 356.224 299.97V292.985C356.277 292.479 356.165 291.97 355.905 291.533C355.627 291.093 355.202 290.766 354.706 290.609C354.159 290.507 353.601 290.474 353.045 290.51H337.216L245.531 290.169C245.038 290.17 244.562 290.35 244.192 290.676C243.821 291.002 243.582 291.451 243.518 291.94C243.518 293.04 243.518 294.14 243.518 295.24C243.518 297.44 243.518 299.64 243.518 301.84C243.518 302.94 243.518 304.04 243.518 305.14C243.477 305.651 243.499 306.164 243.584 306.669C243.716 307.118 244 307.507 244.387 307.769C244.791 308.033 245.27 308.156 245.751 308.121H250.536L274.879 308.253L316.096 308.506L343.882 308.726L351.439 308.814H343.882H316.096L274.879 308.693L250.536 308.594H245.751C245.156 308.634 244.564 308.476 244.068 308.143C243.568 307.796 243.202 307.287 243.034 306.702C242.935 306.143 242.906 305.574 242.946 305.008C242.946 303.908 242.946 302.808 242.946 301.708C242.946 299.508 242.946 297.308 242.946 295.108C242.946 294.008 242.946 292.908 242.946 291.753C243.024 291.125 243.328 290.547 243.802 290.128C244.276 289.708 244.887 289.477 245.52 289.476L337.205 289.982L353.034 290.103C353.624 290.067 354.215 290.108 354.794 290.224C355.366 290.411 355.848 290.803 356.147 291.324C356.432 291.809 356.555 292.371 356.499 292.93C356.499 293.447 356.499 293.964 356.499 294.459C356.499 296.45 356.499 298.276 356.499 299.959C356.499 301.642 356.499 303.061 356.499 304.359C356.499 304.986 356.499 305.569 356.499 306.108C356.541 306.6 356.462 307.095 356.268 307.549C356.125 307.853 355.919 308.122 355.662 308.338C355.406 308.555 355.106 308.713 354.783 308.803C354.525 308.891 354.25 308.918 353.98 308.88Z" fill="#E0E0E0"/>
<path d="M302.825 247.673L251.082 247.438L251.06 252.289L302.803 252.523L302.825 247.673Z" fill="#23AFFF"/>
<path opacity="0.2" d="M302.825 247.673L251.082 247.438L251.06 252.289L302.803 252.523L302.825 247.673Z" fill="white"/>
<path d="M255.761 299.904C255.729 300.346 255.567 300.77 255.296 301.121C255.025 301.473 254.657 301.737 254.238 301.881C253.818 302.025 253.366 302.043 252.936 301.933C252.506 301.822 252.119 301.588 251.821 301.259C251.523 300.93 251.329 300.521 251.261 300.082C251.194 299.644 251.257 299.195 251.442 298.792C251.627 298.389 251.927 298.049 252.304 297.814C252.68 297.58 253.118 297.461 253.561 297.473C254.174 297.507 254.749 297.782 255.16 298.237C255.572 298.692 255.788 299.291 255.761 299.904Z" fill="#23AFFF"/>
<path d="M262.768 299.937C262.79 300.247 262.747 300.558 262.644 300.851C262.54 301.144 262.377 301.413 262.165 301.64C261.953 301.868 261.696 302.049 261.411 302.173C261.126 302.297 260.818 302.361 260.508 302.361C260.197 302.361 259.889 302.297 259.604 302.173C259.319 302.049 259.062 301.868 258.85 301.64C258.638 301.413 258.475 301.144 258.372 300.851C258.268 300.558 258.225 300.247 258.247 299.937C258.225 299.627 258.268 299.316 258.372 299.023C258.475 298.73 258.638 298.461 258.85 298.234C259.062 298.006 259.319 297.825 259.604 297.701C259.889 297.577 260.197 297.513 260.508 297.513C260.818 297.513 261.126 297.577 261.411 297.701C261.696 297.825 261.953 298.006 262.165 298.234C262.377 298.461 262.54 298.73 262.644 299.023C262.747 299.316 262.79 299.627 262.768 299.937Z" fill="#23AFFF"/>
<path d="M269.786 299.97C269.754 300.412 269.592 300.836 269.321 301.187C269.05 301.538 268.682 301.803 268.263 301.947C267.843 302.091 267.391 302.109 266.961 301.998C266.531 301.888 266.144 301.654 265.846 301.325C265.548 300.996 265.354 300.587 265.286 300.148C265.219 299.709 265.282 299.261 265.467 298.858C265.652 298.455 265.952 298.115 266.329 297.88C266.705 297.646 267.143 297.527 267.586 297.539C268.198 297.576 268.771 297.851 269.182 298.305C269.593 298.76 269.81 299.357 269.786 299.97Z" fill="#23AFFF"/>
<path d="M276.793 300.003C276.761 300.445 276.599 300.869 276.328 301.22C276.057 301.571 275.689 301.836 275.27 301.98C274.85 302.124 274.398 302.142 273.968 302.031C273.538 301.921 273.151 301.687 272.853 301.358C272.555 301.029 272.361 300.62 272.293 300.181C272.226 299.742 272.289 299.294 272.474 298.891C272.659 298.488 272.959 298.148 273.336 297.913C273.712 297.679 274.15 297.56 274.593 297.572C275.205 297.609 275.778 297.884 276.189 298.338C276.6 298.793 276.817 299.39 276.793 300.003Z" fill="#23AFFF"/>
<path d="M283.8 300.025C283.77 300.468 283.61 300.893 283.34 301.246C283.071 301.599 282.703 301.865 282.284 302.01C281.864 302.156 281.411 302.176 280.981 302.066C280.55 301.957 280.161 301.723 279.863 301.395C279.564 301.066 279.368 300.657 279.3 300.218C279.232 299.779 279.294 299.33 279.479 298.926C279.665 298.522 279.964 298.182 280.341 297.947C280.718 297.712 281.156 297.593 281.6 297.605C282.21 297.642 282.781 297.916 283.192 298.368C283.603 298.82 283.821 299.414 283.8 300.025Z" fill="#23AFFF"/>
<path d="M290.818 300.058C290.788 300.499 290.63 300.921 290.363 301.273C290.096 301.625 289.732 301.892 289.315 302.039C288.899 302.187 288.448 302.21 288.019 302.105C287.59 302 287.201 301.772 286.899 301.449C286.598 301.125 286.398 300.721 286.324 300.286C286.249 299.85 286.304 299.402 286.481 298.997C286.657 298.592 286.949 298.248 287.319 298.006C287.689 297.765 288.121 297.637 288.563 297.638C289.183 297.661 289.768 297.928 290.19 298.382C290.613 298.836 290.839 299.438 290.818 300.058Z" fill="#23AFFF"/>
<path d="M297.825 300.091C297.847 300.401 297.804 300.712 297.701 301.005C297.597 301.298 297.434 301.567 297.222 301.794C297.01 302.022 296.753 302.203 296.468 302.327C296.183 302.451 295.875 302.515 295.565 302.515C295.254 302.515 294.946 302.451 294.661 302.327C294.376 302.203 294.119 302.022 293.907 301.794C293.695 301.567 293.532 301.298 293.429 301.005C293.325 300.712 293.282 300.401 293.304 300.091C293.282 299.781 293.325 299.47 293.429 299.177C293.532 298.884 293.695 298.615 293.907 298.388C294.119 298.16 294.376 297.979 294.661 297.855C294.946 297.731 295.254 297.667 295.565 297.667C295.875 297.667 296.183 297.731 296.468 297.855C296.753 297.979 297.01 298.16 297.222 298.388C297.434 298.615 297.597 298.884 297.701 299.177C297.804 299.47 297.847 299.781 297.825 300.091Z" fill="#23AFFF"/>
<path d="M304.832 300.124C304.802 300.565 304.644 300.987 304.377 301.339C304.11 301.691 303.746 301.958 303.329 302.106C302.913 302.253 302.462 302.276 302.033 302.171C301.604 302.066 301.215 301.838 300.913 301.515C300.612 301.192 300.412 300.787 300.338 300.352C300.263 299.916 300.318 299.468 300.495 299.063C300.671 298.659 300.963 298.314 301.333 298.073C301.703 297.831 302.135 297.703 302.577 297.704C303.197 297.727 303.782 297.995 304.205 298.448C304.627 298.902 304.853 299.504 304.832 300.124Z" fill="#23AFFF"/>
<path d="M311.839 300.157C311.809 300.6 311.649 301.024 311.379 301.377C311.11 301.73 310.742 301.996 310.323 302.142C309.903 302.288 309.45 302.308 309.02 302.198C308.589 302.089 308.2 301.855 307.902 301.526C307.603 301.198 307.407 300.788 307.339 300.35C307.271 299.911 307.333 299.461 307.519 299.058C307.704 298.654 308.003 298.313 308.38 298.079C308.757 297.844 309.195 297.725 309.639 297.737C310.249 297.774 310.82 298.047 311.231 298.5C311.642 298.952 311.86 299.546 311.839 300.157Z" fill="#23AFFF"/>
<g opacity="0.2">
<path d="M255.761 299.904C255.729 300.346 255.567 300.77 255.296 301.121C255.025 301.473 254.657 301.737 254.238 301.881C253.818 302.025 253.366 302.043 252.936 301.933C252.506 301.822 252.119 301.588 251.821 301.259C251.523 300.93 251.329 300.521 251.261 300.082C251.194 299.644 251.257 299.195 251.442 298.792C251.627 298.389 251.927 298.049 252.304 297.814C252.68 297.58 253.118 297.461 253.561 297.473C254.174 297.507 254.749 297.782 255.16 298.237C255.572 298.692 255.788 299.291 255.761 299.904Z" fill="white"/>
<path d="M262.768 299.937C262.79 300.247 262.747 300.558 262.644 300.851C262.54 301.144 262.377 301.413 262.165 301.64C261.953 301.868 261.696 302.049 261.411 302.173C261.126 302.297 260.818 302.361 260.508 302.361C260.197 302.361 259.889 302.297 259.604 302.173C259.319 302.049 259.062 301.868 258.85 301.64C258.638 301.413 258.475 301.144 258.372 300.851C258.268 300.558 258.225 300.247 258.247 299.937C258.225 299.627 258.268 299.316 258.372 299.023C258.475 298.73 258.638 298.461 258.85 298.234C259.062 298.006 259.319 297.825 259.604 297.701C259.889 297.577 260.197 297.513 260.508 297.513C260.818 297.513 261.126 297.577 261.411 297.701C261.696 297.825 261.953 298.006 262.165 298.234C262.377 298.461 262.54 298.73 262.644 299.023C262.747 299.316 262.79 299.627 262.768 299.937Z" fill="white"/>
<path d="M269.786 299.97C269.754 300.412 269.592 300.836 269.321 301.187C269.05 301.538 268.682 301.803 268.263 301.947C267.843 302.091 267.391 302.109 266.961 301.998C266.531 301.888 266.144 301.654 265.846 301.325C265.548 300.996 265.354 300.587 265.286 300.148C265.219 299.709 265.282 299.261 265.467 298.858C265.652 298.455 265.952 298.115 266.329 297.88C266.705 297.646 267.143 297.527 267.586 297.539C268.198 297.576 268.771 297.851 269.182 298.305C269.593 298.76 269.81 299.357 269.786 299.97Z" fill="white"/>
<path d="M276.793 300.003C276.761 300.446 276.599 300.869 276.328 301.22C276.057 301.572 275.689 301.836 275.27 301.98C274.85 302.124 274.398 302.142 273.968 302.032C273.538 301.921 273.151 301.687 272.853 301.358C272.555 301.029 272.361 300.62 272.293 300.181C272.226 299.743 272.289 299.294 272.474 298.891C272.659 298.488 272.959 298.148 273.336 297.914C273.712 297.679 274.15 297.56 274.593 297.572C275.205 297.609 275.778 297.884 276.189 298.339C276.6 298.793 276.817 299.391 276.793 300.003Z" fill="white"/>
<path d="M283.8 300.025C283.77 300.468 283.61 300.893 283.34 301.246C283.071 301.599 282.703 301.865 282.284 302.01C281.864 302.156 281.411 302.176 280.981 302.066C280.55 301.957 280.161 301.723 279.863 301.395C279.564 301.066 279.368 300.657 279.3 300.218C279.232 299.779 279.294 299.33 279.479 298.926C279.665 298.522 279.964 298.182 280.341 297.947C280.718 297.712 281.156 297.593 281.6 297.605C282.21 297.642 282.781 297.916 283.192 298.368C283.603 298.82 283.821 299.414 283.8 300.025Z" fill="white"/>
<path d="M290.818 300.058C290.788 300.499 290.63 300.921 290.363 301.273C290.096 301.625 289.732 301.892 289.315 302.039C288.899 302.187 288.448 302.21 288.019 302.105C287.59 302 287.201 301.772 286.899 301.449C286.598 301.125 286.398 300.721 286.324 300.286C286.249 299.85 286.304 299.402 286.481 298.997C286.657 298.592 286.949 298.248 287.319 298.006C287.689 297.765 288.121 297.637 288.563 297.638C289.183 297.661 289.768 297.928 290.19 298.382C290.613 298.836 290.839 299.438 290.818 300.058Z" fill="white"/>
<path d="M297.825 300.091C297.847 300.401 297.804 300.712 297.701 301.005C297.597 301.298 297.434 301.567 297.222 301.794C297.01 302.022 296.753 302.203 296.468 302.327C296.183 302.451 295.875 302.515 295.565 302.515C295.254 302.515 294.946 302.451 294.661 302.327C294.376 302.203 294.119 302.022 293.907 301.794C293.695 301.567 293.532 301.298 293.429 301.005C293.325 300.712 293.282 300.401 293.304 300.091C293.282 299.781 293.325 299.47 293.429 299.177C293.532 298.884 293.695 298.615 293.907 298.388C294.119 298.16 294.376 297.979 294.661 297.855C294.946 297.731 295.254 297.667 295.565 297.667C295.875 297.667 296.183 297.731 296.468 297.855C296.753 297.979 297.01 298.16 297.222 298.388C297.434 298.615 297.597 298.884 297.701 299.177C297.804 299.47 297.847 299.781 297.825 300.091Z" fill="white"/>
<path d="M304.832 300.124C304.802 300.565 304.644 300.987 304.377 301.339C304.11 301.691 303.746 301.958 303.329 302.106C302.913 302.253 302.462 302.276 302.033 302.171C301.604 302.066 301.215 301.838 300.913 301.515C300.612 301.192 300.412 300.787 300.338 300.352C300.263 299.916 300.318 299.468 300.495 299.063C300.671 298.659 300.963 298.314 301.333 298.073C301.703 297.831 302.135 297.703 302.577 297.704C303.197 297.727 303.782 297.995 304.205 298.448C304.627 298.902 304.853 299.504 304.832 300.124Z" fill="white"/>
<path d="M311.839 300.157C311.809 300.6 311.649 301.024 311.379 301.377C311.11 301.73 310.742 301.996 310.323 302.142C309.903 302.288 309.45 302.308 309.02 302.198C308.589 302.089 308.2 301.855 307.902 301.526C307.603 301.198 307.407 300.788 307.339 300.35C307.271 299.911 307.333 299.461 307.519 299.058C307.704 298.654 308.003 298.313 308.38 298.079C308.757 297.844 309.195 297.725 309.639 297.737C310.249 297.774 310.82 298.047 311.231 298.5C311.642 298.952 311.86 299.546 311.839 300.157Z" fill="white"/>
</g>
<path d="M301.884 141.361C302.648 141.025 303.296 140.471 303.748 139.769C304.2 139.066 304.435 138.247 304.425 137.412C304.453 136.869 304.371 136.326 304.183 135.817C303.995 135.307 303.705 134.84 303.331 134.446C302.957 134.052 302.506 133.738 302.007 133.523C301.508 133.309 300.97 133.198 300.426 133.198C299.883 133.198 299.345 133.309 298.846 133.523C298.347 133.738 297.896 134.052 297.522 134.446C297.148 134.84 296.858 135.307 296.67 135.817C296.482 136.326 296.4 136.869 296.428 137.412C296.411 138.255 296.645 139.085 297.099 139.795C297.553 140.506 298.208 141.066 298.98 141.405C292.82 142.329 293.095 149.017 293.095 149.017L307.659 149.083C307.659 149.083 308 142.274 301.884 141.361Z" fill="#23AFFF"/>
<path opacity="0.1" d="M301.884 141.361C302.648 141.025 303.296 140.471 303.748 139.769C304.2 139.066 304.435 138.247 304.425 137.412C304.453 136.869 304.371 136.326 304.183 135.817C303.995 135.307 303.705 134.84 303.331 134.446C302.957 134.052 302.506 133.738 302.007 133.523C301.508 133.309 300.97 133.198 300.426 133.198C299.883 133.198 299.345 133.309 298.846 133.523C298.347 133.738 297.896 134.052 297.522 134.446C297.148 134.84 296.858 135.307 296.67 135.817C296.482 136.326 296.4 136.869 296.428 137.412C296.411 138.255 296.645 139.085 297.099 139.795C297.553 140.506 298.208 141.066 298.98 141.405C292.82 142.329 293.095 149.017 293.095 149.017L307.659 149.083C307.659 149.083 308 142.274 301.884 141.361Z" fill="black"/>
<path d="M325.55 153.396L273.641 153.161L273.613 159.365L325.522 159.6L325.55 153.396Z" fill="#23AFFF"/>
<path opacity="0.2" d="M325.55 153.396L273.641 153.161L273.613 159.365L325.522 159.6L325.55 153.396Z" fill="white"/>
<path d="M134.717 185.548H134.2L132.704 185.658C131.894 185.707 131.089 185.813 130.295 185.977C129.78 186.049 129.27 186.148 128.766 186.274L127.061 186.747C124.159 187.637 121.421 188.993 118.954 190.762C115.695 193.128 112.973 196.157 110.968 199.65C109.79 201.664 108.852 203.809 108.174 206.041C107.462 208.467 107.052 210.972 106.953 213.499C106.887 214.826 106.909 216.157 107.019 217.481C107.019 218.152 107.206 218.823 107.294 219.505C107.368 220.192 107.497 220.873 107.679 221.54C108.668 225.954 110.675 230.076 113.54 233.576C116.405 237.077 120.048 239.86 124.179 241.703C127.169 242.993 130.374 243.713 133.628 243.826C136.989 244.011 140.354 243.529 143.528 242.407L144.496 242.044H144.628L144.738 242.11L158.609 249.15L158.202 249.502C156.717 244.904 155.287 240.449 153.901 236.17V236.005L154.022 235.884C157.387 232.495 159.885 228.344 161.304 223.784C162.589 219.615 162.964 215.218 162.404 210.892C161.905 207.047 160.669 203.334 158.763 199.958C157.12 197.058 155 194.455 152.493 192.258C150.424 190.519 148.135 189.062 145.684 187.924C143.83 187.124 141.898 186.516 139.92 186.109L137.72 185.746L136.125 185.625L135.157 185.559H134.827C134.937 185.547 135.047 185.547 135.157 185.559H136.136L137.731 185.625L139.931 185.944C141.934 186.321 143.891 186.907 145.772 187.693C148.265 188.817 150.596 190.271 152.702 192.016C155.255 194.203 157.42 196.806 159.104 199.716C161.064 203.129 162.338 206.891 162.855 210.793C163.462 215.186 163.113 219.659 161.832 223.905C160.404 228.56 157.867 232.799 154.44 236.258L154.506 235.972C155.892 240.251 157.333 244.706 158.829 249.293L159.038 249.964L158.411 249.645L144.54 242.616H144.782L143.792 242.979C140.557 244.117 137.13 244.611 133.705 244.431C130.38 244.304 127.109 243.558 124.058 242.231C118.239 239.739 113.397 235.407 110.275 229.9C108.838 227.357 107.789 224.613 107.162 221.76C106.99 221.076 106.862 220.381 106.777 219.681C106.689 218.988 106.546 218.306 106.513 217.624C106.215 213.71 106.629 209.774 107.734 206.008C108.429 203.745 109.393 201.573 110.605 199.54C112.658 196.015 115.436 192.967 118.756 190.597C121.264 188.824 124.048 187.478 126.995 186.615L128.722 186.175C129.23 186.057 129.744 185.965 130.262 185.9C131.065 185.751 131.877 185.663 132.693 185.636L134.2 185.581C134.371 185.558 134.544 185.547 134.717 185.548Z" fill="#23AFFF"/>
<path d="M140.987 211.2H138.952L134.552 205.018V200.959C134.552 200.959 131.406 200.761 131.78 206.074C132.154 211.387 131.78 210.034 131.78 210.034C131.78 210.034 125.103 210.034 124.553 210.639C124.003 211.244 123.97 217.69 123.893 221.287C123.851 222.154 124.1 223.01 124.6 223.72C125.1 224.429 125.823 224.951 126.654 225.203C126.887 225.267 127.127 225.301 127.369 225.302C129.041 225.302 137.544 223.949 137.544 223.949H141.053L140.987 211.2Z" fill="#23AFFF"/>
<path d="M146.806 210.111L145.552 224.015H142.076V210.397L146.806 210.111Z" fill="#23AFFF"/>
<path d="M188.265 493.174V483.769L171.402 483.648L171.259 497.871L172.304 497.948C176.957 498.245 195.976 498.685 199.1 497.717C202.576 496.639 188.265 493.174 188.265 493.174Z" fill="#23AFFF"/>
<path d="M199.496 496.837C199.496 496.991 193.182 497.123 185.405 497.123C177.628 497.123 171.314 496.991 171.314 496.837C171.314 496.683 177.628 496.551 185.405 496.551C193.182 496.551 199.496 496.683 199.496 496.837Z" fill="#263238"/>
<path d="M188.562 495.099C188.419 495.022 188.562 494.527 188.903 493.999C189.244 493.471 189.706 493.251 189.816 493.361C189.926 493.471 189.695 493.889 189.365 494.34C189.035 494.791 188.705 495.176 188.562 495.099Z" fill="#263238"/>
<path d="M189.64 495.715C189.486 495.715 189.563 495.099 189.893 494.516C190.223 493.933 190.663 493.581 190.784 493.669C190.905 493.757 190.707 494.252 190.399 494.769C190.091 495.286 189.783 495.77 189.64 495.715Z" fill="#263238"/>
<path d="M176.396 496.793C176.33 496.793 176.077 496.595 175.714 496.177C175.271 495.64 174.777 495.146 174.24 494.703C173.712 494.281 173.082 494.004 172.414 493.9C171.897 493.834 171.567 493.9 171.534 493.834C171.501 493.768 171.82 493.537 172.425 493.493C173.223 493.476 174.002 493.741 174.625 494.241C175.208 494.716 175.7 495.294 176.077 495.946C176.33 496.43 176.462 496.749 176.396 496.793Z" fill="#263238"/>
<path d="M188.617 493.328C188.694 493.46 188.408 493.79 187.924 493.966C187.44 494.142 187.011 494.076 186.989 493.966C186.967 493.856 187.308 493.625 187.726 493.471C188.144 493.317 188.529 493.196 188.617 493.328Z" fill="#263238"/>
<path d="M188.353 492.415C188.353 492.58 187.913 492.712 187.341 492.723C186.769 492.734 186.318 492.602 186.329 492.448C186.34 492.294 186.791 492.151 187.341 492.14C187.891 492.129 188.331 492.261 188.353 492.415Z" fill="#263238"/>
<path d="M229.79 493.174V483.769L212.927 483.648L212.784 497.728L213.829 497.805C218.482 498.102 237.512 498.685 240.625 497.717C244.101 496.639 229.79 493.174 229.79 493.174Z" fill="#23AFFF"/>
<path d="M241.021 496.859C241.021 497.013 234.718 497.145 226.93 497.145C219.142 497.145 212.85 497.013 212.85 496.859C212.85 496.705 219.153 496.573 226.93 496.573C234.707 496.573 241.021 496.705 241.021 496.859Z" fill="#263238"/>
<path d="M230.087 495.099C229.955 495.022 230.087 494.527 230.428 493.999C230.769 493.471 231.231 493.251 231.341 493.361C231.451 493.471 231.22 493.889 230.89 494.34C230.56 494.791 230.23 495.176 230.087 495.099Z" fill="#263238"/>
<path d="M231.165 495.715C231.022 495.715 231.088 495.099 231.429 494.516C231.77 493.933 232.199 493.581 232.32 493.669C232.441 493.757 232.232 494.252 231.924 494.769C231.616 495.286 231.319 495.77 231.165 495.715Z" fill="#263238"/>
<path d="M217.921 496.793C217.855 496.793 217.613 496.595 217.239 496.177C216.796 495.64 216.302 495.146 215.765 494.703C215.237 494.281 214.607 494.004 213.939 493.9C213.433 493.834 213.092 493.9 213.059 493.834C213.026 493.768 213.345 493.537 213.95 493.493C214.748 493.476 215.527 493.741 216.15 494.241C216.736 494.713 217.229 495.292 217.602 495.946C217.855 496.43 217.987 496.749 217.921 496.793Z" fill="#263238"/>
<path d="M230.142 493.328C230.219 493.46 229.933 493.79 229.449 493.966C228.965 494.142 228.536 494.076 228.514 493.966C228.492 493.856 228.833 493.625 229.251 493.471C229.669 493.317 230.054 493.196 230.142 493.328Z" fill="#263238"/>
<path d="M229.9 492.415C229.9 492.58 229.46 492.712 228.888 492.723C228.316 492.734 227.876 492.602 227.887 492.448C227.898 492.294 228.338 492.151 228.888 492.14C229.438 492.129 229.9 492.261 229.9 492.415Z" fill="#263238"/>
<path d="M291.918 213.884C291.478 213.433 290.389 213.653 290.389 213.653C290.498 213.02 290.498 212.372 290.389 211.739C290.191 211.123 288.805 211.244 288.805 211.244C288.741 210.725 288.741 210.201 288.805 209.682C288.816 209.567 288.791 209.451 288.734 209.351C288.677 209.251 288.59 209.17 288.486 209.121C287.83 208.854 287.126 208.726 286.418 208.747C285.571 208.142 289.003 203.335 290.279 201.795C291.555 200.255 291.324 199.056 290.191 199.056C289.41 199.056 285.406 203.676 284.174 205.227C282.942 206.778 279.675 211.09 279.565 207.647C279.455 204.204 278.069 201.608 277.2 201.168C276.331 200.728 275.407 201.762 275.88 202.719C276.296 203.806 276.555 204.947 276.65 206.107C276.769 207.031 276.729 207.969 276.529 208.879C276.164 210.572 275.668 212.235 275.044 213.851H274.956C274.956 213.851 250.954 236.874 249.216 238.513C247.665 239.987 216.469 236.764 210.21 236.104C208.083 235.793 205.935 235.646 203.786 235.664C201.069 235.785 200.585 236.17 197.879 236.203C191.045 236.279 184.227 236.878 177.485 237.996C174.432 238.515 171.58 239.862 169.241 241.891C166.902 243.921 165.164 246.553 164.219 249.502C157.916 269.192 143.638 315.799 141.119 341.979C139.215 345.431 137.497 348.981 135.971 352.616C134.2 357.434 134.629 357.599 135.223 357.709C136.829 358.006 138.655 349.36 139.337 351.45C140.019 353.54 135.872 361.757 137.555 361.999C139.755 362.307 141.504 353.199 141.713 352.473C141.922 351.747 143.011 351.978 142.813 352.66C142.494 353.628 139.403 363.891 141.559 364.221C142.747 364.397 142.879 362.23 142.879 362.23C142.879 362.23 145.079 352.407 146.08 352.605C147.081 352.803 146.014 358.6 145.508 360.536C145.002 362.472 145.706 363.451 146.74 362.978C147.444 362.648 149.127 356.763 149.589 354.849C150.051 352.935 151.206 347.633 152.757 350.702C154.308 353.771 156.662 355.553 157.63 355.597C157.848 355.572 158.054 355.482 158.22 355.339C158.387 355.196 158.507 355.006 158.565 354.795C158.623 354.583 158.616 354.359 158.546 354.151C158.475 353.943 158.344 353.761 158.169 353.628C157.336 352.815 156.622 351.889 156.046 350.878C155.533 350.09 155.161 349.219 154.946 348.304C154.503 346.479 154.245 344.614 154.176 342.738L154 341.638C156.464 329.439 163.559 293.634 173.8 270.765L178.002 279.411L179.828 285.813L168.63 313.456L216.392 312.829L209.264 285.395L217.921 256.795C227.282 257.004 251.317 257.356 255.321 255.541C260.359 253.341 286.418 220.429 286.418 220.429C288.117 219.109 289.743 217.699 291.291 216.205C291.291 216.205 292.875 214.874 291.918 213.884Z" fill="#FFBE9D"/>
<path d="M166.529 293.029C167.915 288.299 175.032 264.913 175.032 264.913C175.032 264.913 178.53 283.976 177.606 286.275C176.756 288.243 175.752 290.141 174.603 291.951C166.529 304.238 167.585 310.387 167.585 310.387L216.37 308.902C216.48 302.082 212.443 286.22 211.607 283.69C210.771 281.16 213.554 272.877 213.554 272.877C213.554 272.877 219.054 267.278 218.856 264.396C218.752 261.807 218.431 259.232 217.899 256.696L247.599 257.796L246.664 237.666L204.006 233.398C202.521 237.589 189.09 235.532 189.09 235.532C174.592 236.016 173.69 238.678 167.662 243.364C161.634 248.05 151.657 288.266 151.657 288.266L166.529 293.029Z" fill="#23AFFF"/>
<path d="M195.371 288.266C194.526 288.417 193.664 288.461 192.808 288.398C191.213 288.398 189.024 288.288 186.615 288.046C184.206 287.804 182.028 287.463 180.477 287.155C179.622 287.045 178.783 286.831 177.98 286.517C178.84 286.517 179.698 286.598 180.543 286.759C182.105 286.957 184.272 287.232 186.67 287.474C189.068 287.716 191.246 287.881 192.819 287.991C193.676 288.002 194.531 288.094 195.371 288.266Z" fill="#263238"/>
<path d="M198.715 284.119C197.869 284.533 196.975 284.84 196.053 285.032C191.664 286.185 187.137 286.722 182.6 286.627C181.661 286.657 180.722 286.569 179.806 286.363C180.733 286.246 181.666 286.198 182.6 286.22C184.327 286.165 186.703 286.044 189.321 285.736C191.939 285.428 194.271 284.988 195.921 284.636C196.837 284.391 197.772 284.218 198.715 284.119Z" fill="#263238"/>
<path d="M215.127 265.617C215.105 266.456 214.99 267.289 214.786 268.103C214.5 269.632 214.06 271.722 213.499 274.01C212.938 276.298 212.399 278.41 211.915 279.84C211.72 280.658 211.433 281.452 211.057 282.205C211.118 281.369 211.273 280.542 211.519 279.741C211.937 278.025 212.41 276.045 212.938 273.878C213.466 271.711 213.972 269.731 214.39 268.015C214.539 267.189 214.786 266.384 215.127 265.617Z" fill="#263238"/>
<path d="M167.046 290.224C164.501 289.831 161.99 289.246 159.533 288.475C157.023 287.888 154.559 287.116 152.163 286.165C154.707 286.564 157.218 287.149 159.676 287.914C162.187 288.499 164.65 289.271 167.046 290.224Z" fill="#263238"/>
<path d="M218.427 256.454C218.012 256.525 217.588 256.525 217.173 256.454C216.024 256.336 214.896 256.066 213.818 255.651C212.018 254.975 210.38 253.93 209.009 252.583C207.637 251.236 206.563 249.617 205.854 247.83C205.071 245.864 204.736 243.748 204.875 241.637C204.924 239.895 205.445 238.2 206.382 236.731C207.041 235.741 208.026 235.014 209.165 234.674C209.469 234.59 209.784 234.549 210.1 234.553C210.32 234.553 210.43 234.553 210.43 234.553C210.43 234.553 209.968 234.553 209.231 234.85C208.186 235.236 207.299 235.96 206.712 236.907C205.216 239.261 204.798 243.562 206.393 247.577C207.135 249.47 208.297 251.17 209.792 252.549C211.017 253.677 212.427 254.585 213.961 255.233C215.401 255.802 216.898 256.211 218.427 256.454Z" fill="#263238"/>
<path d="M244.068 257.4C243.793 254.027 243.705 250.641 243.804 247.258C243.718 243.878 243.821 240.496 244.112 237.127C244.387 240.496 244.476 243.879 244.376 247.258C244.468 250.642 244.366 254.028 244.068 257.4Z" fill="#263238"/>
<path d="M203.72 234.63C203.841 232.177 204.094 229.405 204.094 229.405C204.094 229.405 210.166 228.734 210.529 222.464C210.892 216.194 210.529 201.729 210.529 201.729L199.529 196.097L187.319 205.7L189.2 237.05L200.398 237.765C201.254 237.789 202.084 237.472 202.707 236.884C203.33 236.296 203.694 235.486 203.72 234.63Z" fill="#FFBE9D"/>
<path d="M204.809 217.503C204.809 217.503 204.809 217.624 204.71 217.767C204.628 217.871 204.522 217.953 204.402 218.007C204.281 218.06 204.149 218.084 204.017 218.075C203.313 218.075 202.631 217.261 202.389 216.315C202.274 215.857 202.274 215.377 202.389 214.918C202.412 214.718 202.484 214.527 202.599 214.361C202.714 214.196 202.869 214.062 203.049 213.972C203.197 213.911 203.363 213.911 203.511 213.972C203.621 214.027 203.71 214.115 203.764 214.225C203.841 214.412 203.764 214.533 203.764 214.522C203.764 214.511 203.764 214.412 203.654 214.302C203.596 214.223 203.512 214.169 203.417 214.148C203.321 214.128 203.222 214.144 203.137 214.192C203.002 214.274 202.89 214.388 202.811 214.525C202.732 214.661 202.689 214.815 202.686 214.973C202.593 215.382 202.593 215.807 202.686 216.216C202.906 217.074 203.5 217.767 204.028 217.833C204.131 217.847 204.236 217.84 204.337 217.811C204.437 217.783 204.53 217.734 204.611 217.668C204.743 217.58 204.787 217.492 204.809 217.503Z" fill="#EB996E"/>
<path d="M214.302 198.341C213.455 195.459 210.386 194.029 207.592 193.237C203.335 192.027 198.737 191.499 194.579 193.028C190.421 194.557 185.427 197.241 185.427 201.828C182.974 201.63 181.566 203.775 180.598 206.437C179.979 208.059 179.608 209.765 179.498 211.497C179.19 217.503 177.507 225.797 173.613 230.197C171.413 232.65 168.366 234.344 167.112 237.402C166.012 240.053 166.584 243.199 165.561 245.883C164.648 248.248 162.635 249.931 161.161 251.988C159.659 254.322 158.775 256.998 158.593 259.767C158.41 262.536 158.934 265.306 160.116 267.817C161.306 270.263 162.982 272.442 165.042 274.219C167.101 275.997 169.501 277.337 172.095 278.157C177.233 279.72 182.712 279.774 187.88 278.311C191.758 277.384 195.376 275.59 198.462 273.064C201.619 270.486 203.788 266.895 204.6 262.9C205.381 258.412 204.127 253.847 203.192 249.381C200.266 235.268 201.102 234.531 204.798 221.43C204.886 221.199 204.93 220.957 204.996 220.726C205.062 220.495 205.095 220.385 205.139 220.209C205.244 219.691 205.299 219.164 205.304 218.636C204.764 218.837 204.178 218.879 203.615 218.758C203.052 218.638 202.535 218.359 202.125 217.954C201.714 217.523 201.427 216.988 201.296 216.407C201.164 215.826 201.192 215.22 201.377 214.654C201.636 214.035 202.023 213.477 202.512 213.016C203.001 212.556 203.581 212.203 204.215 211.981C205.436 211.475 206.745 211.211 207.944 210.65C210.485 209.44 212.245 206.932 213.444 204.303C214.43 202.481 214.734 200.367 214.302 198.341Z" fill="#263238"/>
<path d="M205.249 217.8C205.481 218.143 205.673 218.513 205.821 218.9C206.151 219.593 206.591 220.572 207.075 221.705L207.163 221.914H206.932L205.832 222.013C205.073 222.013 204.435 222.156 203.687 222.145C203.622 222.13 203.562 222.1 203.512 222.055C203.462 222.011 203.424 221.955 203.401 221.892C203.368 221.792 203.368 221.684 203.401 221.584C203.426 221.436 203.46 221.289 203.5 221.144L203.698 220.363C203.798 219.842 203.952 219.333 204.16 218.845C204.14 219.376 204.062 219.903 203.929 220.418L203.775 221.199C203.72 221.463 203.621 221.87 203.775 221.837C204.325 221.837 205.106 221.716 205.832 221.672L206.932 221.573L206.789 221.815C206.316 220.715 205.92 219.681 205.689 218.966C205.486 218.601 205.338 218.208 205.249 217.8Z" fill="#23AFFF"/>
<path d="M167.585 310.387L216.37 308.902L237.6 391.776L233.695 486.838H207.9L211.057 393.8L192.192 336.105L195.096 490.523L169.026 490.908L166.287 345.763C166.166 341.726 164.846 332.629 165.341 328.625L167.585 310.387Z" fill="#263238"/>
<path d="M198.682 337.282C197.883 337.332 197.082 337.284 196.295 337.139C194.821 336.963 192.808 336.655 190.597 336.215C188.386 335.775 186.406 335.269 184.976 334.862C184.212 334.694 183.472 334.428 182.776 334.07C182.776 333.905 186.362 334.763 190.762 335.654C195.162 336.545 198.704 337.117 198.682 337.282Z" fill="#455A64"/>
<path d="M233.431 481.624C233.431 481.778 227.59 481.91 220.385 481.91C213.18 481.91 207.328 481.778 207.328 481.624C207.328 481.47 213.169 481.338 220.385 481.338C227.601 481.338 233.431 481.459 233.431 481.624Z" fill="#455A64"/>
<path d="M194.865 486.508C194.865 486.673 189.189 486.794 182.193 486.794C175.197 486.794 169.532 486.673 169.532 486.508C169.532 486.343 175.208 486.222 182.193 486.222C189.178 486.222 194.865 486.354 194.865 486.508Z" fill="#455A64"/>
<path d="M191.499 486.112C191.345 486.112 190.663 452.375 189.97 410.762C189.277 369.149 188.87 335.39 189.013 335.39C189.156 335.39 189.86 369.116 190.542 410.751C191.224 452.386 191.664 486.112 191.499 486.112Z" fill="#455A64"/>
<path d="M229.966 481.624C229.954 481.474 229.954 481.323 229.966 481.173V479.853C229.966 478.665 230.054 476.96 230.12 474.793C230.274 470.393 230.494 464.002 230.769 456.17C231.363 440.418 232.199 418.704 233.112 394.735C233.112 394.504 233.112 394.284 233.112 394.086V394.163C227.337 371.063 222.112 350.097 218.317 334.928L213.917 316.987C213.411 314.886 213.026 313.247 212.751 312.103C212.619 311.564 212.531 311.146 212.454 310.827C212.411 310.684 212.385 310.536 212.377 310.387C212.434 310.526 212.478 310.669 212.509 310.816C212.597 311.124 212.707 311.542 212.861 312.07C213.158 313.17 213.587 314.842 214.137 316.932C215.237 321.178 216.788 327.294 218.724 334.829C222.552 349.987 227.832 370.898 233.684 394.031V394.108C233.684 394.306 233.684 394.537 233.684 394.757C232.705 418.726 231.814 440.429 231.165 456.181C230.824 464.024 230.538 470.371 230.34 474.793C230.23 476.993 230.142 478.665 230.087 479.853C230.087 480.414 230.021 480.854 230.01 481.173C230.012 481.324 229.997 481.476 229.966 481.624Z" fill="#455A64"/>
<path d="M221.551 392.15C219.698 392.759 217.789 393.183 215.853 393.415C213.477 393.822 211.453 394.108 210.54 394.152V393.932C210.837 394.02 210.991 394.075 210.991 394.119C210.991 394.163 210.804 394.119 210.496 394.119H209.836L210.496 393.921C211.354 393.668 213.378 393.25 215.754 392.821C217.66 392.407 219.601 392.183 221.551 392.15Z" fill="#455A64"/>
<path d="M221.1 395.307C219.384 395.385 217.665 395.308 215.963 395.076C214.245 395.041 212.533 394.853 210.848 394.515C214.286 394.234 217.746 394.502 221.1 395.307Z" fill="#455A64"/>
<path opacity="0.2" d="M167.376 312.136C167.954 312.878 168.681 313.49 169.512 313.931C170.342 314.373 171.256 314.635 172.194 314.699C174.159 314.932 176.146 314.895 178.101 314.589C190.696 313.192 204.039 311.905 216.37 308.902C200.409 309.793 183.546 309.496 167.585 310.387L167.42 311.751" fill="black"/>
<g opacity="0.2">
<path d="M183.821 334.631L192.819 369.545L192.192 336.105L183.821 334.631Z" fill="black"/>
</g>
</svg>
